# Exported from Wings 3D 1.5.3
mtllib 15x15_House.mtl
o Cube1
#8 vertices, 12 faces
v -7.50000000 0.0000000e+0 -7.50000000
v -7.50000000 0.0000000e+0 7.50000000
v -7.50000000 30.00000000 -7.50000000
v -7.50000000 30.00000000 7.50000000
v 7.50000000 0.0000000e+0 -7.50000000
v 7.50000000 0.0000000e+0 7.50000000
v 7.50000000 30.00000000 -7.50000000
v 7.50000000 30.00000000 7.50000000
vt 0.0000000e+0 5.5511151e-17
vt 5.5511151e-17 0.50000000
vt 0.25000000 0.0000000e+0
vt 0.25000000 0.0000000e+0
vt 0.25000000 0.50000000
vt 0.35104444 0.58500000
vt 0.35104444 0.83500000
vt 0.50000000 0.0000000e+0
vt 0.50000000 0.50000000
vt 0.60104444 0.58500000
vt 0.60104444 0.83500000
vt 0.75000000 0.0000000e+0
vt 0.75000000 0.50000000
vt 0.75512222 0.72793333
vt 0.75512222 0.97793333
vt 1.00000000 0.0000000e+0
vt 1.00000000 0.50000000
vt 1.00512222 0.72793333
vt 1.00512222 0.97793333
vn -0.57735027 -0.57735027 -0.57735027
vn -0.57735027 -0.57735027 0.57735027
vn -0.57735027 0.57735027 -0.57735027
vn -0.57735027 0.57735027 0.57735027
vn 0.57735027 -0.57735027 -0.57735027
vn 0.57735027 -0.57735027 0.57735027
vn 0.57735027 0.57735027 -0.57735027
vn 0.57735027 0.57735027 0.57735027
g Cube1_Cube1_auv
usemtl Cube1_auv
s 1
f 1/19/1 5/15/5 2/18/2
f 2/16/2 3/13/3 1/12/1
f 2/18/2 5/15/5 6/14/6
f 2/4/2 8/9/8 4/5/4
f 3/5/3 5/1/5 1/3/1
f 3/7/3 8/10/8 7/11/7
f 4/17/4 3/13/3 2/16/2
f 4/6/4 8/10/8 3/7/3
f 5/12/5 8/9/8 6/8/6
f 6/8/6 8/9/8 2/4/2
f 7/2/7 5/1/5 3/5/3
f 7/13/7 8/9/8 5/12/5
