# Exported from Wings 3D 1.5.3
mtllib birdie.mtl
o Cylinder1
#70 vertices, 136 faces
v 0.12407855 1.05025100 -4.5947808e-2
v 0.13603530 1.05025100 6.5527863e-3
v 0.12699080 1.05025100 5.9632662e-2
v 9.8321971e-2 1.05025100 0.10521089
v 5.4393398e-2 1.05025100 0.13634860
v 1.8928037e-3 1.05025100 0.14830535
v -5.1187072e-2 1.05025100 0.13926085
v -9.6765300e-2 1.05025100 0.11059202
v -0.12790301 1.05025100 6.6663448e-2
v -0.13985976 1.05025100 1.4162853e-2
v -0.13081526 1.05025100 -3.8917023e-2
v -0.10214643 1.05025100 -8.4495251e-2
v -5.8217858e-2 1.05025100 -0.11563296
v -5.7172635e-3 1.05025100 -0.12758971
v 4.7362613e-2 1.05025100 -0.11854521
v 9.2940841e-2 1.05025100 -8.9876381e-2
v 0.49839898 -2.3544202e-2 -0.21323264
v 0.54587942 -2.3544202e-2 -4.7520237e-3
v 0.50996355 -2.3544202e-2 0.20602893
v 0.39611923 -2.3544202e-2 0.38702074
v 0.22167823 -2.3544202e-2 0.51066903
v 1.3197614e-2 -2.3544202e-2 0.55814947
v -0.19758334 -2.3544202e-2 0.52223360
v -0.37857515 -2.3544202e-2 0.40838928
v -0.50222344 -2.3544202e-2 0.23394828
v -0.54970388 -2.3544202e-2 2.5467663e-2
v -0.51378801 -2.3544202e-2 -0.18531329
v -0.39994369 -2.3544202e-2 -0.36630510
v -0.22550269 -2.3544202e-2 -0.48995339
v -1.7022073e-2 -2.3544202e-2 -0.53743383
v 0.19375888 -2.3544202e-2 -0.50151796
v 0.37475069 -2.3544202e-2 -0.38767364
v 0.42958765 2.15617100 -1.5443252e-3
v 0.39218693 2.15617100 -0.16576618
v 0.29478817 2.15617100 -0.30317476
v 0.15221948 2.15617100 -0.39285084
v -1.3814375e-2 2.15617100 -0.42114206
v -0.17803623 2.15617100 -0.38374134
v -0.31544481 2.15617100 -0.28634258
v -0.40512089 2.15617100 -0.14377389
v -0.43341211 2.15617100 2.2259965e-2
v -0.39601139 2.15617100 0.18648182
v -0.29861263 2.15617100 0.32389040
v -0.15604394 2.15617100 0.41356648
v 9.9899152e-3 2.15617100 0.44185770
v 0.17421177 2.15617100 0.40445698
v 0.31162035 2.15617100 0.30705822
v 0.40129643 2.15617100 0.16448953
v 0.10606630 4.07604812 7.3794271e-3
v 9.6707143e-2 4.07604812 -3.3715451e-2
v 7.2334079e-2 4.07604812 -6.8100573e-2
v 3.6657689e-2 4.07604812 -9.0541116e-2
v -4.8906227e-3 4.07604812 -9.7620711e-2
v -4.5985501e-2 4.07604812 -8.8261553e-2
v -8.0370623e-2 4.07604812 -6.3888489e-2
v -0.10281117 4.07604812 -2.8212099e-2
v -0.10989076 4.07604812 1.3336213e-2
v -0.10053160 4.07604812 5.4431091e-2
v -7.6158539e-2 4.07604812 8.8816213e-2
v -4.0482148e-2 4.07604812 0.11125676
v 1.0661629e-3 4.07604812 0.11833635
v 4.2161041e-2 4.07604812 0.10897719
v 7.6546163e-2 4.07604812 8.4604129e-2
v 9.8986706e-2 4.07604812 4.8927738e-2
v 0.26782698 3.11610956 2.9175509e-3
v 0.24444703 3.11610956 -9.9740818e-2
v 0.25014157 3.11610956 0.10670863
v 0.81149471 2.63614028 6.8661284e-4
v 0.31831698 2.63614028 -0.13275350
v 0.32571900 2.63614028 0.13559908
vt 0.0000000e+0 4.3639146e-3
vt 1.7860742e-2 0.52246294
vt 4.2386142e-2 1.0465651e-3
vt 5.1248646e-2 0.51984984
vt 5.8238618e-2 0.63559439
vt 6.5228590e-2 0.75133894
vt 6.8215659e-2 0.26706018
vt 7.0853544e-2 0.98348194
vt 7.8889542e-2 0.26622479
vt 7.9208534e-2 0.98282804
vt 8.9062011e-2 0.98262175
vt 8.9843382e-2 0.75082360
vt 9.0624754e-2 0.51902545
vt 9.1477811e-2 0.26596124
vt 9.2374343e-2 0.0000000e+0
vt 9.8913873e-2 0.98289447
vt 0.10406402 0.26630965
vt 0.10726426 0.98360468
vt 0.11445414 0.75150488
vt 0.11473203 0.26721698
vt 0.12222427 0.63581008
vt 0.12999441 0.52011529
vt 0.14235435 1.3835493e-3
vt 0.16336394 0.52295342
vt 0.18471717 4.6042428e-3
vt 0.18471717 4.9865801e-3
vt 0.20248283 0.52239595
vt 0.22710460 1.1042012e-3
vt 0.23587176 0.51963894
vt 0.25288318 0.26756020
vt 0.25539013 0.98340206
vt 0.26355739 0.26667881
vt 0.26374537 0.98271215
vt 0.27359894 0.98249449
vt 0.27524820 0.51876915
vt 0.27614577 0.26640074
vt 0.27709323 0.0000000e+0
vt 0.28345070 0.98278223
vt 0.28873185 0.26676834
vt 0.29180083 0.98353156
vt 0.29939952 0.26772564
vt 0.31461747 0.51991900
vt 0.32707275 1.4597437e-3
vt 0.34798593 0.52291344
vt 0.36943422 4.6042428e-3
vt 0.36943422 5.2611996e-3
vt 0.38719988 0.52239595
vt 0.41182165 1.1042012e-3
vt 0.42058880 0.51963894
vt 0.43760023 0.26756020
vt 0.44010718 0.98340206
vt 0.44827444 0.26667881
vt 0.44846242 0.98271215
vt 0.45831599 0.98249449
vt 0.45996525 0.51876915
vt 0.46086281 0.26640074
vt 0.46181028 0.0000000e+0
vt 0.46816775 0.98278223
vt 0.47344890 0.26676834
vt 0.47651788 0.98353156
vt 0.48411656 0.26772564
vt 0.49933452 0.51991900
vt 0.51178980 1.4597437e-3
vt 0.53270298 0.52291344
vt 0.55415126 4.6042428e-3
vt 0.55415126 5.2611996e-3
vt 0.57191693 0.52239595
vt 0.59653870 1.1042012e-3
vt 0.60530585 0.51963894
vt 0.62231728 0.26756020
vt 0.62482423 0.98340206
vt 0.63299148 0.26667881
vt 0.63317947 0.98271215
vt 0.64303303 0.98249449
vt 0.64468230 0.51876915
vt 0.64557986 0.26640074
vt 0.64652733 0.0000000e+0
vt 0.65288480 0.98278223
vt 0.65816594 0.26676834
vt 0.66123492 0.98353156
vt 0.66883361 0.26772564
vt 0.68405156 0.51991900
vt 0.69650685 1.4597437e-3
vt 0.71742003 0.52291344
vt 0.73886831 0.13416727
vt 0.73886831 5.2611996e-3
vt 0.73886831 0.37864363
vt 0.73886831 0.74888780
vt 0.73886831 0.72177264
vt 0.74055573 0.75879081
vt 0.74109906 0.73909285
vt 0.74590442 0.76729426
vt 0.74690837 0.73089718
vt 0.74742884 8.3927740e-2
vt 0.75018525 0.18385851
vt 0.75410010 0.77310357
vt 0.75411256 0.72386107
vt 0.75541182 0.72554849
vt 0.75610149 0.60719928
vt 0.76389504 0.77533432
vt 0.76531484 0.72386107
vt 0.77333466 0.49262592
vt 0.77379806 0.77364690
vt 0.77456357 4.0788441e-2
vt 0.77510978 0.72609182
vt 0.77965675 0.22543643
vt 0.78230150 0.76829821
vt 0.78330545 0.73190113
vt 0.78811081 0.76010253
vt 0.78865414 0.74040458
vt 0.79034156 0.75030759
vt 0.79772078 0.49596678
vt 0.81560550 0.26466134
vt 0.81614149 1.1316938e-2
vt 0.82279605 0.25257116
vt 0.84120053 0.26113169
vt 0.85802263 0.37577558
vt 0.85884477 0.49262592
vt 0.86583273 0.0000000e+0
vt 0.87303558 0.26113169
vt 0.87344134 0.60991392
vt 0.87484473 0.49041947
vt 0.91607226 8.5605281e-3
vt 0.92272682 0.24981475
vt 0.95921156 3.5695260e-2
vt 0.96430474 0.22034325
vt 0.98868306 7.7273177e-2
vt 0.99143947 0.17720395
vt 1.00000000 0.12696442
vn 0.91170508 5.2759987e-2 -0.40744353
vn 0.99822755 5.2759987e-2 -2.7534305e-2
vn 0.93277893 5.2759987e-2 0.35656677
vn 0.72532316 5.2759987e-2 0.68638378
vn 0.40744353 5.2759987e-2 0.91170508
vn 2.7534305e-2 5.2759987e-2 0.99822755
vn -0.35656677 5.2759987e-2 0.93277893
vn -0.68638378 5.2759987e-2 0.72532316
vn -0.91170508 5.2759987e-2 0.40744353
vn -0.99822755 5.2759987e-2 2.7534305e-2
vn -0.93277893 5.2759987e-2 -0.35656677
vn -0.72532316 5.2759987e-2 -0.68638378
vn -0.40744353 5.2759987e-2 -0.91170508
vn -2.7534305e-2 5.2759987e-2 -0.99822755
vn 0.35656677 5.2759987e-2 -0.93277893
vn 0.68638378 5.2759987e-2 -0.72532316
vn 0.90114943 -0.16044108 -0.40272617
vn 0.98667015 -0.16044108 -2.7215514e-2
vn 0.85663260 -0.39868696 0.32745885
vn 0.45345301 -0.78118226 0.42910913
vn 0.37418235 -0.39868696 0.83727909
vn 1.7213725e-2 -0.78118226 0.62406568
vn -0.32745885 -0.39868696 0.85663260
vn -0.42910913 -0.78118226 0.45345301
vn -0.90114943 -0.16044108 0.40272617
vn -0.98667015 -0.16044108 2.7215514e-2
vn -0.85663260 -0.39868696 -0.32745885
vn -0.45345301 -0.78118226 -0.42910913
vn -0.37418235 -0.39868696 -0.83727909
vn -1.7213725e-2 -0.78118226 -0.62406568
vn 0.32745885 -0.39868696 -0.85663260
vn 0.42910913 -0.78118226 -0.45345301
vn 0.89287607 -0.44961743 -2.4829093e-2
vn 0.83277188 -0.21229285 -0.51129516
vn 0.73393475 2.5663982e-2 -0.67873496
vn 0.35668059 -4.6333894e-2 -0.93307670
vn -2.7543094e-2 -4.6333894e-2 -0.99854622
vn -0.40757360 -4.6333894e-2 -0.91199613
vn -0.72555471 -4.6333894e-2 -0.68660289
vn -0.93307670 -4.6333894e-2 -0.35668059
vn -0.99854622 -4.6333894e-2 2.7543094e-2
vn -0.91199613 -4.6333894e-2 0.40757360
vn -0.68660289 -4.6333894e-2 0.72555471
vn -0.35668059 -4.6333894e-2 0.93307670
vn 2.7543094e-2 -4.6333894e-2 0.99854622
vn 0.40757360 -4.6333894e-2 0.91199613
vn 0.77023368 2.5663982e-2 0.63724519
vn 0.85640534 -0.21523306 0.46930228
vn 0.91933979 0.39264655 -2.5358328e-2
vn 0.45913506 0.86434518 -0.20518873
vn 0.49990413 0.68631822 -0.52826430
vn 0.17956717 0.86434518 -0.46974785
vn -2.0053668e-2 0.68631822 -0.72702487
vn -0.20518873 0.86434518 -0.45913506
vn -0.52826430 0.68631822 -0.49990413
vn -0.59739304 0.76874750 -0.22836119
vn -0.91933979 0.39264655 2.5358328e-2
vn -0.45913506 0.86434518 0.20518873
vn -0.49990413 0.68631822 0.52826430
vn -0.17956717 0.86434518 0.46974785
vn 2.0053668e-2 0.68631822 0.72702487
vn 0.20518873 0.86434518 0.45913506
vn 0.52826430 0.68631822 0.49990413
vn 0.59739304 0.76874750 0.22836119
vn 0.87288283 0.48732650 -2.4258001e-2
vn 0.82056667 0.25983246 -0.50907508
vn 0.84442524 0.26079385 0.46790233
vn 0.98552505 0.16824926 -2.0798134e-2
vn 0.56520478 0.14287153 -0.81248464
vn 0.59003174 0.14076196 0.79501485
g Cylinder1_Cylinder1_auv
usemtl Cylinder1_auv
s 1
f 1/17/1 17/23/17 16/20/16
f 1/17/1 34/22/34 2/14/2
f 2/14/2 17/23/17 1/17/1
f 2/14/2 19/3/19 18/15/18
f 2/14/2 48/4/48 3/9/3
f 3/9/3 19/3/19 2/14/2
f 3/9/3 48/4/48 4/7/4
f 4/7/4 19/3/19 3/9/3
f 4/81/4 21/83/21 20/86/20
f 4/81/4 46/82/46 5/79/5
f 5/79/5 21/83/21 4/81/4
f 5/79/5 46/82/46 6/76/6
f 6/76/6 21/83/21 5/79/5
f 6/76/6 23/68/23 22/77/22
f 6/76/6 44/69/44 7/72/7
f 7/72/7 23/68/23 6/76/6
f 7/72/7 44/69/44 8/70/8
f 8/70/8 23/68/23 7/72/7
f 8/41/8 25/43/25 24/46/24
f 8/41/8 42/42/42 9/39/9
f 9/39/9 25/43/25 8/41/8
f 9/39/9 42/42/42 10/36/10
f 10/36/10 25/43/25 9/39/9
f 10/36/10 27/28/27 26/37/26
f 10/36/10 40/29/40 11/32/11
f 11/32/11 27/28/27 10/36/10
f 11/32/11 40/29/40 12/30/12
f 12/30/12 27/28/27 11/32/11
f 12/61/12 29/63/29 28/66/28
f 12/61/12 38/62/38 13/59/13
f 13/59/13 29/63/29 12/61/12
f 13/59/13 38/62/38 14/56/14
f 14/56/14 29/63/29 13/59/13
f 14/56/14 31/48/31 30/57/30
f 14/56/14 36/49/36 15/52/15
f 15/52/15 31/48/31 14/56/14
f 15/52/15 36/49/36 16/50/16
f 16/20/16 17/23/17 32/26/32
f 16/50/16 31/48/31 15/52/15
f 16/20/16 34/22/34 1/17/1
f 17/95/17 19/94/19 32/106/32
f 18/15/18 17/23/17 2/14/2
f 18/85/18 19/94/19 17/95/17
f 20/1/20 19/3/19 4/7/4
f 20/104/20 32/106/32 19/94/19
f 21/114/21 31/115/31 20/104/20
f 22/77/22 21/83/21 6/76/6
f 22/119/22 30/120/30 21/114/21
f 23/123/23 29/124/29 22/119/22
f 24/65/24 23/68/23 8/70/8
f 24/125/24 28/126/28 23/123/23
f 25/127/25 27/128/27 24/125/24
f 26/37/26 25/43/25 10/36/10
f 26/129/26 27/128/27 25/127/25
f 28/126/28 24/125/24 27/128/27
f 28/25/28 27/28/27 12/30/12
f 29/124/29 23/123/23 28/126/28
f 30/120/30 22/119/22 29/124/29
f 30/57/30 29/63/29 14/56/14
f 31/115/31 21/114/21 30/120/30
f 32/106/32 20/104/20 31/115/31
f 32/45/32 31/48/31 16/50/16
f 33/13/33 2/14/2 34/22/34
f 33/13/33 48/4/48 2/14/2
f 33/112/33 68/121/68 48/102/48
f 34/22/34 16/20/16 35/24/35
f 34/116/34 68/87/68 33/113/33
f 35/47/35 16/50/16 36/49/36
f 35/24/35 69/21/69 34/22/34
f 36/49/36 14/56/14 37/55/37
f 36/49/36 51/51/51 35/47/35
f 37/55/37 14/56/14 38/62/38
f 37/55/37 53/54/53 36/49/36
f 38/62/38 12/61/12 39/64/39
f 38/62/38 53/54/53 37/55/37
f 39/27/39 12/30/12 40/29/40
f 39/64/39 55/60/55 38/62/38
f 40/29/40 10/36/10 41/35/41
f 40/29/40 55/31/55 39/27/39
f 41/35/41 10/36/10 42/42/42
f 41/35/41 57/34/57 40/29/40
f 42/42/42 8/41/8 43/44/43
f 42/42/42 57/34/57 41/35/41
f 43/67/43 8/70/8 44/69/44
f 43/44/43 59/40/59 42/42/42
f 44/69/44 6/76/6 45/75/45
f 44/69/44 59/71/59 43/67/43
f 45/75/45 6/76/6 46/82/46
f 45/75/45 61/74/61 44/69/44
f 46/82/46 4/81/4 47/84/47
f 46/82/46 61/74/61 45/75/45
f 47/2/47 4/7/4 48/4/48
f 47/84/47 63/80/63 46/82/46
f 47/2/47 67/6/67 63/8/63
f 48/102/48 68/121/68 70/99/70
f 48/4/48 70/5/70 47/2/47
f 49/11/49 66/19/66 50/16/50
f 49/11/49 67/6/67 65/12/65
f 50/109/50 64/110/64 49/111/49
f 50/16/50 66/19/66 51/18/51
f 51/51/51 36/49/36 52/53/52
f 51/107/51 63/108/63 50/109/50
f 51/18/51 66/19/66 35/24/35
f 52/53/52 36/49/36 53/54/53
f 52/103/52 62/105/62 51/107/51
f 53/54/53 38/62/38 54/58/54
f 53/100/53 61/101/61 52/103/52
f 54/58/54 38/62/38 55/60/55
f 54/96/54 60/98/60 53/100/53
f 55/31/55 40/29/40 56/33/56
f 55/92/55 59/93/59 54/96/54
f 56/33/56 40/29/40 57/34/57
f 56/90/56 58/91/58 55/92/55
f 57/34/57 42/42/42 58/38/58
f 57/88/57 58/91/58 56/90/56
f 58/38/58 42/42/42 59/40/59
f 59/71/59 44/69/44 60/73/60
f 59/93/59 55/92/55 58/91/58
f 60/73/60 44/69/44 61/74/61
f 60/98/60 54/96/54 59/93/59
f 61/74/61 46/82/46 62/78/62
f 61/101/61 53/100/53 60/98/60
f 62/78/62 46/82/46 63/80/63
f 62/105/62 52/103/52 61/101/61
f 63/108/63 51/107/51 62/105/62
f 63/8/63 67/6/67 64/10/64
f 64/110/64 50/109/50 63/108/63
f 64/10/64 67/6/67 49/11/49
f 65/12/65 66/19/66 49/11/49
f 65/118/65 68/87/68 66/122/66
f 66/122/66 68/87/68 69/117/69
f 67/6/67 47/2/47 70/5/70
f 67/89/67 68/121/68 65/97/65
f 69/21/69 35/24/35 66/19/66
f 69/117/69 68/87/68 34/116/34
f 70/99/70 68/121/68 67/89/67
