# 3ds Max Wavefront OBJ Exporter v0.97b - (c)2007 guruware
# File Created: 08.05.2015 22:05:36

mtllib box.mtl

#
# object Box001
#

v  -24.5989 0.0000 32.5774
v  24.5989 0.0000 -32.5774
v  24.5989 0.0000 32.5774
v  -24.5989 16.1012 32.5774
v  24.5989 16.1012 -32.5774
v  -24.5989 16.1012 -32.5774
v  24.5989 16.1012 32.5774
v  -24.5989 0.0000 -32.5774
# 8 vertices

vn 0.0000 -1.0000 -0.0000
vn 0.0000 1.0000 -0.0000
vn 0.0000 0.0000 1.0000
vn 1.0000 0.0000 -0.0000
vn 0.0000 0.0000 -1.0000
vn -1.0000 0.0000 -0.0000
# 6 vertex normals

vt 0.4853 0.3689 0.0000
vt 0.0100 0.0100 0.0000
vt 0.4853 0.0100 0.0000
vt 0.0100 0.7572 0.0000
vt 0.4853 0.3982 0.0000
vt 0.4853 0.7572 0.0000
vt 0.8736 0.5157 0.0000
vt 0.5147 0.3982 0.0000
vt 0.8736 0.3982 0.0000
vt 0.4853 0.9040 0.0000
vt 0.0100 0.7865 0.0000
vt 0.4853 0.7865 0.0000
vt 0.8736 0.2669 0.0000
vt 0.5147 0.1495 0.0000
vt 0.8736 0.1495 0.0000
vt 0.9900 0.1275 0.0000
vt 0.5147 0.0100 0.0000
vt 0.9900 0.0100 0.0000
vt 0.0100 0.3689 0.0000
vt 0.0100 0.3982 0.0000
vt 0.5147 0.5157 0.0000
vt 0.0100 0.9040 0.0000
vt 0.5147 0.2669 0.0000
vt 0.5147 0.1275 0.0000
# 24 texture coords

g Box001
usemtl wire_229154215
s 2
f 1/1/1 2/2/1 3/3/1 
s 4
f 4/4/2 5/5/2 6/6/2 
s 8
f 1/7/3 7/8/3 4/9/3 
s 16
f 3/10/4 5/11/4 7/12/4 
s 32
f 2/13/5 6/14/5 5/15/5 
s 64
f 8/16/6 4/17/6 6/18/6 
s 2
f 1/1/1 8/19/1 2/2/1 
s 4
f 4/4/2 7/20/2 5/5/2 
s 8
f 1/7/3 3/21/3 7/8/3 
s 16
f 3/10/4 2/22/4 5/11/4 
s 32
f 2/13/5 8/23/5 6/14/5 
s 64
f 8/16/6 1/24/6 4/17/6 
# 0 polygons - 12 triangles

