# Exported from Wings 3D 1.5.2
mtllib car.mtl
o Cube1
#60 vertices, 116 faces
v -1.00000000 0.47524444 2.35710494
v 1.00000000 0.47524444 2.35710494
v -1.00000000 1.30189333 2.35710494
v 1.00000000 1.30189333 2.35710494
v -1.00000000 0.47524444 -2.64289506
v 1.00000000 0.47524444 -2.64289506
v -1.00000000 1.45833778 -2.64289506
v 1.00000000 1.45833778 -2.64289506
v -1.00000000 2.03789333 0.40066050
v -1.00000000 2.03789333 -1.30333950
v 1.00000000 2.03789333 0.40066050
v 1.00000000 2.03789333 -1.30333950
v -1.00000000 1.45833778 1.16643828
v 1.00000000 1.45833778 1.16643828
v -1.00000000 1.45833778 -1.97311728
v 1.00000000 1.45833778 -1.97311728
v -1.00000000 0.47524444 2.11860358
v -1.00000000 0.47524444 1.11860358
v -1.00000000 0.47524444 -1.25218378
v -1.00000000 0.47524444 -2.25218378
v 1.00000000 0.47524444 2.11860358
v 1.00000000 0.47524444 1.11860358
v 1.00000000 0.47524444 -1.25218378
v 1.00000000 0.47524444 -2.25218378
v -1.00000000 0.82233778 1.91027025
v -1.00000000 0.82233778 1.32693692
v -1.00000000 0.82233778 -1.46051712
v -1.00000000 0.82233778 -2.04385045
v 1.00000000 0.82233778 1.91027025
v 1.00000000 0.82233778 1.32693692
v 1.00000000 0.82233778 -1.46051712
v 1.00000000 0.82233778 -2.04385045
v -0.93180013 1.50296356 -1.92154439
v -0.93180013 1.99326756 -1.35491239
v 0.93180013 1.99326756 -1.35491239
v 0.93180013 1.50296356 -1.92154439
v 0.92317083 1.99152889 0.46192272
v -0.92317083 1.99152889 0.46192272
v -0.92317083 1.50470222 1.10517605
v 0.92317083 1.50470222 1.10517605
v -1.00000000 2.03789333 -0.45133950
v -1.00000000 1.45833778 -0.45489506
v 1.00000000 2.03789333 -0.45133950
v 1.00000000 1.45833778 -0.45845061
v 1.00000000 1.98979022 -0.50003645
v 1.00000000 1.50644089 -0.50596712
v 1.00000000 1.50644089 -1.84401157
v 1.00000000 1.98979022 -1.28541691
v -1.00000000 1.98979022 -0.40353060
v -1.00000000 1.50644089 -0.40649593
v -1.00000000 1.50644089 1.02316846
v -1.00000000 1.98979022 0.38450979
v -1.00000000 1.50644089 -0.50270396
v -1.00000000 1.98979022 -0.49973863
v -1.00000000 1.98979022 -1.28541691
v -1.00000000 1.50644089 -1.84401157
v 1.00000000 1.50644089 -0.40975366
v 1.00000000 1.98979022 -0.40382299
v 1.00000000 1.98979022 0.38450979
v 1.00000000 1.50644089 1.02316846
vt 0.0000000e+0 0.73031160
vt 1.3207124e-9 0.56009826
vt 2.6414249e-9 0.38988493
vt 1.1269306e-8 0.72679475
vt 1.2486749e-8 0.56989073
vt 1.2635893e-8 0.55066912
vt 1.3857913e-8 0.39317528
vt 1.2336041e-7 0.83903182
vt 1.2543455e-7 0.57171608
vt 1.2558370e-7 0.55249447
vt 1.2780492e-7 0.26622398
vt 1.3336356e-7 0.99869724
vt 1.3440180e-7 0.86488842
vt 1.3674974e-7 0.56228694
vt 1.3926853e-7 0.23766515
vt 1.7767472e-7 3.3306691e-16
vt 2.8292307e-7 0.87986237
vt 2.8382731e-7 0.76332350
vt 2.8814823e-7 0.20644340
vt 2.8905248e-7 8.9904532e-2
vt 3.6310893e-7 1.00000000
vt 3.6371459e-7 0.92194334
vt 3.6526472e-7 0.72216243
vt 3.6893975e-7 0.24852438
vt 3.7048988e-7 4.8743467e-2
vt 3.7085959e-7 1.0954480e-3
vt 1.3625342e-2 0.74067402
vt 1.3625456e-2 0.85452601
vt 1.5349353e-2 0.37770735
vt 1.5349468e-2 0.24984274
vt 0.38422129 0.37770735
vt 0.38422140 0.24984274
vt 0.38594529 0.74067402
vt 0.38594540 0.85452601
vt 0.39957061 0.73031160
vt 0.39957061 0.56009826
vt 0.39957061 0.38988493
vt 0.39957062 0.72679475
vt 0.39957062 0.56983123
vt 0.39957062 0.55061070
vt 0.39957062 0.39317528
vt 0.39957073 0.83903182
vt 0.39957074 0.57106417
vt 0.39957074 0.55184364
vt 0.39957074 0.26622398
vt 0.39957074 0.99869724
vt 0.39957075 0.86488842
vt 0.39957075 0.56157660
vt 0.39957075 0.23766515
vt 0.39957079 0.0000000e+0
vt 0.39957089 0.87986237
vt 0.39957089 0.76332350
vt 0.39957090 0.20644340
vt 0.39957090 8.9904532e-2
vt 0.39957097 1.00000000
vt 0.39957097 0.92194334
vt 0.39957098 0.72216243
vt 0.39957098 0.24852438
vt 0.39957098 4.8743467e-2
vt 0.39957098 0.0000000e+0
vt 0.39957098 1.0954480e-3
vt 0.39957098 0.14970171
vt 0.39957098 0.14970171
vt 0.39957098 0.31086977
vt 0.39957098 0.31086977
vt 0.39957098 0.40743587
vt 0.39957098 0.50400196
vt 0.39957098 0.69713415
vt 0.40016341 0.50400196
vt 0.40075584 0.60056805
vt 0.51116999 0.60056805
vt 0.52716560 0.40743587
vt 0.55647846 0.69713415
vt 0.55760230 0.50400196
vt 0.66754453 0.50400196
vt 0.66807746 0.60056805
vt 0.66813696 0.60056805
vt 0.68466290 0.40743587
vt 0.68519692 0.40743587
vt 0.68584776 0.31086977
vt 0.76844291 0.14970171
vt 0.76844291 0.31086977
vt 0.77189093 0.0000000e+0
vt 0.77189093 0.14970171
vn -0.57735027 -0.57735027 0.57735027
vn 0.81649658 -0.40824829 0.40824829
vn -0.64816660 0.64264306 0.40852166
vn 0.64816660 0.32132153 0.69038578
vn -0.81649658 -0.40824829 -0.40824829
vn 0.57735027 -0.57735027 -0.57735027
vn -0.57735027 0.57735027 -0.57735027
vn 0.81649658 0.40824829 -0.40824829
vn -0.63742240 0.66762496 0.38466815
vn -0.57675440 0.72452009 -0.37739236
vn 0.46651796 0.83851113 0.28153168
vn 0.57675441 0.72452009 -0.37739236
vn -0.89967244 0.38779525 0.20051022
vn 0.80850470 0.52274739 0.27028747
vn -0.87006130 0.43718913 -0.22772571
vn 0.77730179 0.55797036 -0.29063896
vn -0.49818046 -0.75456215 -0.42714423
vn -0.65283619 -0.65920623 0.37316492
vn -0.75435332 -0.57128543 -0.32339453
vn -0.27610944 -0.83641071 0.47347724
vn 0.27610944 -0.83641071 -0.47347724
vn 0.86497105 -0.43670550 0.24721122
vn 0.49818045 -0.75456216 -0.42714422
vn 0.49818046 -0.75456215 0.42714423
vn -0.75435332 -0.57128543 -0.32339453
vn -0.75435332 -0.57128543 0.32339453
vn -0.65283619 -0.65920623 -0.37316492
vn -0.91695685 -0.34721401 0.19655168
vn 0.91695685 -0.34721401 -0.19655168
vn 0.49818045 -0.75456216 0.42714422
vn 0.86497105 -0.43670550 -0.24721122
vn 0.75435332 -0.57128543 0.32339453
vn -1.9544202e-8 0.75620210 -0.65433812
vn -3.2300229e-8 0.75620213 -0.65433810
vn 1.7415894e-8 0.75620213 -0.65433809
vn 4.6598666e-9 0.75620210 -0.65433812
vn -1.5057513e-8 0.79738232 0.60347448
vn -1.1486884e-8 0.79738231 0.60347448
vn 1.1125010e-8 0.79738233 0.60347446
vn -3.7669408e-8 0.79738233 0.60347446
vn -0.80000000 0.60000000 0.0000000e+0
vn -1.00000000 9.5404537e-16 0.0000000e+0
vn 0.93632918 0.35112344 0.0000000e+0
vn 1.00000000 3.4588190e-17 0.0000000e+0
vn 1.00000000 0.0000000e+0 0.0000000e+0
vn 1.00000000 0.0000000e+0 0.0000000e+0
vn 1.00000000 0.0000000e+0 0.0000000e+0
vn 1.00000000 0.0000000e+0 0.0000000e+0
vn -1.00000000 -7.6221390e-16 0.0000000e+0
vn -1.00000000 1.5072612e-15 0.0000000e+0
vn -1.00000000 -1.2588959e-17 0.0000000e+0
vn -1.00000000 -1.5324391e-15 0.0000000e+0
vn -1.00000000 2.1230392e-15 0.0000000e+0
vn -1.00000000 -8.5623056e-17 0.0000000e+0
vn -1.00000000 0.0000000e+0 0.0000000e+0
vn -1.00000000 1.0615196e-15 0.0000000e+0
vn 1.00000000 9.7122146e-17 0.0000000e+0
vn 1.00000000 -1.7575598e-15 0.0000000e+0
vn 1.00000000 -7.7689082e-16 0.0000000e+0
vn 1.00000000 0.0000000e+0 0.0000000e+0
g Cube1_Cube1_auv
usemtl Cube1_auv
s 1
f 1/61/1 4/16/4 3/50/3
f 1/61/1 21/25/21 2/26/2
f 1/61/1 25/54/25 17/59/17
f 2/26/2 4/16/4 1/61/1
f 2/26/2 29/20/29 4/16/4
f 3/50/3 14/15/14 13/49/13
f 3/50/3 25/54/25 1/61/1
f 4/16/4 14/15/14 3/50/3
f 4/16/4 29/20/29 14/15/14
f 5/55/5 7/46/7 6/21/6
f 5/55/5 28/51/28 7/46/7
f 6/21/6 20/56/20 5/55/5
f 6/21/6 24/22/24 20/56/20
f 6/21/6 32/17/32 24/22/24
f 7/46/7 8/12/8 6/21/6
f 7/46/7 16/13/16 8/12/8
f 7/46/7 28/51/28 15/47/15
f 8/12/8 32/17/32 6/21/6
f 9/37/9 37/29/37 11/3/11
f 9/37/9 38/31/38 37/29/37
f 9/37/9 39/32/39 38/31/38
f 9/37/9 51/45/51 13/49/13
f 9/37/9 52/41/52 51/45/51
f 10/35/10 33/34/33 15/47/15
f 10/35/10 34/33/34 33/34/33
f 10/35/10 35/27/35 34/33/34
f 10/35/10 43/2/43 12/1/12
f 10/35/10 54/39/54 41/36/41
f 10/35/10 55/38/55 54/39/54
f 10/35/10 56/42/56 55/38/55
f 11/3/11 37/29/37 14/15/14
f 11/3/11 41/36/41 9/37/9
f 11/3/11 43/2/43 41/36/41
f 11/3/11 59/7/59 43/2/43
f 12/1/12 35/27/35 10/35/10
f 12/1/12 48/4/48 16/13/16
f 13/49/13 25/54/25 3/50/3
f 13/49/13 26/53/26 25/54/25
f 13/49/13 39/32/39 9/37/9
f 13/49/13 42/48/42 18/58/18
f 13/49/13 51/45/51 42/48/42
f 14/15/14 30/19/30 22/24/22
f 14/15/14 39/32/39 13/49/13
f 14/15/14 40/30/40 39/32/39
f 14/15/14 59/7/59 11/3/11
f 14/15/14 60/11/60 59/7/59
f 15/47/15 16/13/16 7/46/7
f 15/47/15 28/51/28 27/52/27
f 15/47/15 33/34/33 16/13/16
f 15/47/15 56/42/56 10/35/10
f 16/13/16 32/17/32 8/12/8
f 16/13/16 35/27/35 12/1/12
f 16/13/16 36/28/36 35/27/35
f 16/13/16 44/14/44 31/18/31
f 16/13/16 46/9/46 44/14/44
f 16/13/16 47/8/47 46/9/46
f 16/13/16 48/4/48 47/8/47
f 17/59/17 21/25/21 1/61/1
f 17/59/17 25/54/25 21/25/21
f 18/58/18 23/23/23 22/24/22
f 18/58/18 26/53/26 13/49/13
f 18/58/18 30/19/30 26/53/26
f 18/58/18 42/48/42 19/57/19
f 19/57/19 23/23/23 18/58/18
f 19/57/19 27/52/27 23/23/23
f 19/57/19 42/48/42 27/52/27
f 20/56/20 28/51/28 5/55/5
f 20/56/20 32/17/32 28/51/28
f 21/25/21 29/20/29 2/26/2
f 22/24/22 30/19/30 18/58/18
f 22/24/22 44/14/44 14/15/14
f 23/23/23 44/14/44 22/24/22
f 24/22/24 32/17/32 20/56/20
f 25/54/25 29/20/29 21/25/21
f 25/54/25 30/19/30 29/20/29
f 26/53/26 30/19/30 25/54/25
f 27/52/27 31/18/31 23/23/23
f 27/52/27 32/17/32 31/18/31
f 27/52/27 42/48/42 15/47/15
f 28/51/28 32/17/32 27/52/27
f 29/20/29 30/19/30 14/15/14
f 31/18/31 32/17/32 16/13/16
f 31/18/31 44/14/44 23/23/23
f 33/34/33 36/28/36 16/13/16
f 34/60/34 35/83/35 33/63/33
f 35/83/35 36/84/36 33/63/33
f 37/29/37 40/30/40 14/15/14
f 38/64/38 39/62/39 37/82/37
f 39/62/39 40/81/40 37/82/37
f 41/36/41 43/2/43 10/35/10
f 41/36/41 49/40/49 9/37/9
f 41/36/41 54/39/54 42/48/42
f 42/48/42 49/40/49 41/36/41
f 42/48/42 50/44/50 49/40/49
f 42/48/42 51/45/51 50/44/50
f 42/48/42 54/39/54 53/43/53
f 42/48/42 56/42/56 15/47/15
f 43/2/43 46/9/46 45/5/45
f 43/2/43 48/4/48 12/1/12
f 43/2/43 57/10/57 44/14/44
f 43/2/43 58/6/58 57/10/57
f 43/2/43 59/7/59 58/6/58
f 44/14/44 46/9/46 43/2/43
f 44/14/44 57/10/57 14/15/14
f 45/5/45 48/4/48 43/2/43
f 46/70/46 48/73/48 45/68/45
f 47/76/47 48/73/48 46/70/46
f 49/40/49 52/41/52 9/37/9
f 50/66/50 51/79/51 49/69/49
f 51/79/51 52/74/52 49/69/49
f 53/43/53 56/42/56 42/48/42
f 54/77/54 56/67/56 53/75/53
f 55/71/55 56/67/56 54/77/54
f 57/10/57 60/11/60 14/15/14
f 58/78/58 59/72/59 57/80/57
f 59/72/59 60/65/60 57/80/57
