# Exported from Wings 3D 1.5.2
mtllib cubeTextured.mtl
o Cube1
#8 vertices, 12 faces
v -1.00000000 -1.00000000 -1.00000000
v -1.00000000 -1.00000000 1.00000000
v -1.00000000 1.00000000 -1.00000000
v -1.00000000 1.00000000 1.00000000
v 1.00000000 -1.00000000 -1.00000000
v 1.00000000 -1.00000000 1.00000000
v 1.00000000 1.00000000 -1.00000000
v 1.00000000 1.00000000 1.00000000
vt 5.7777778e-3 0.33593333
vt 5.7777778e-3 0.66926667
vt 5.7777778e-3 1.00260000
vt 5.7777778e-3 0.33593333
vt 5.7777778e-3 0.66926667
vt 5.7777778e-3 2.6000000e-3
vt 0.33694444 0.33420000
vt 0.33694444 0.66753333
vt 0.33694444 8.6666667e-4
vt 0.33694444 0.33420000
vt 0.33911111 0.33593333
vt 0.33911111 0.33593333
vt 0.33911111 0.66926667
vt 0.33911111 1.00260000
vt 0.33911111 2.6000000e-3
vt 0.67027778 0.33420000
vt 0.67027778 0.66753333
vt 0.67027778 8.6666667e-4
vt 0.67027778 0.33420000
vt 0.67244444 0.66926667
vt 0.67244444 1.00260000
vn -0.57735027 -0.57735027 -0.57735027
vn -0.57735027 -0.57735027 0.57735027
vn -0.57735027 0.57735027 -0.57735027
vn -0.57735027 0.57735027 0.57735027
vn 0.57735027 -0.57735027 -0.57735027
vn 0.57735027 -0.57735027 0.57735027
vn 0.57735027 0.57735027 -0.57735027
vn 0.57735027 0.57735027 0.57735027
g Cube1_Cube1_auv
usemtl Cube1_auv
s 1
f 1/17/1 5/8/5 2/16/2
f 2/18/2 3/10/3 1/9/1
f 2/16/2 5/8/5 6/7/6
f 2/4/2 8/13/8 4/2/4
f 3/14/3 5/5/5 1/13/1
f 3/1/3 8/15/8 7/11/7
f 4/19/4 3/10/3 2/18/2
f 4/6/4 8/15/8 3/1/3
f 5/20/5 8/14/8 6/13/6
f 6/12/6 8/13/8 2/4/2
f 7/3/7 5/5/5 3/14/3
f 7/21/7 8/14/8 5/20/5
