# Exported from Wings 3D 1.5.3
mtllib glassSkyscraper.mtl
o Cube1
#44 vertices, 84 faces
v -10.00000000 4.11980096 -10.00000000
v -10.00000000 4.11980096 10.00000000
v -10.00000000 102.31419204 -10.00000000
v -10.00000000 102.31419204 10.00000000
v 10.00000000 4.11980096 -10.00000000
v 10.00000000 4.11980096 10.00000000
v 10.00000000 102.31419204 -10.00000000
v 10.00000000 102.31419204 10.00000000
v -10.00000000 1.3867356e-3 10.00000000
v -10.00000000 1.3867356e-3 -10.00000000
v 10.00000000 1.3867356e-3 -10.00000000
v 10.00000000 1.3867356e-3 10.00000000
v -10.00000000 4.11980096 -3.33333333
v -10.00000000 4.11980096 3.33333333
v -3.33333333 4.11980096 -10.00000000
v 3.33333333 4.11980096 -10.00000000
v -3.33333333 4.11980096 10.00000000
v 3.33333333 4.11980096 10.00000000
v 10.00000000 4.11980096 -3.33333333
v 10.00000000 4.11980096 3.33333333
v -10.00000000 1.3867356e-3 -3.33333333
v -10.00000000 1.3867356e-3 3.33333333
v 3.33333333 1.3867356e-3 -10.00000000
v -3.33333333 1.3867356e-3 -10.00000000
v 10.00000000 1.3867356e-3 3.33333333
v 10.00000000 1.3867356e-3 -3.33333333
v -3.33333333 1.3867356e-3 10.00000000
v 3.33333333 1.3867356e-3 10.00000000
v -7.99895939 4.10744572 2.49685961
v -7.99895939 4.10744572 -2.49685961
v -7.99895939 1.3741978e-2 -2.49685961
v -7.99895939 1.3741978e-2 2.49685961
v -2.49685961 4.10744572 -7.99895939
v 2.49685961 4.10744572 -7.99895939
v 2.49685961 1.3741978e-2 -7.99895939
v -2.49685961 1.3741978e-2 -7.99895939
v 2.49685961 4.10744572 7.99895939
v -2.49685961 4.10744572 7.99895939
v -2.49685961 1.3741978e-2 7.99895939
v 2.49685961 1.3741978e-2 7.99895939
v 7.99895939 4.10744572 -2.49685961
v 7.99895939 4.10744572 2.49685961
v 7.99895939 1.3741978e-2 2.49685961
v 7.99895939 1.3741978e-2 -2.49685961
vt 0.0000000e+0 1.00000000
vt 1.2490009e-16 0.0000000e+0
vt 1.2490009e-16 4.0253165e-2
vt 6.5159651e-2 0.0000000e+0
vt 6.5159651e-2 4.0253165e-2
vt 0.13031930 0.0000000e+0
vt 0.13031930 4.0253165e-2
vt 0.19547895 1.00000000
vt 0.19547895 0.0000000e+0
vt 0.19547895 4.0253165e-2
vt 0.19547895 0.0000000e+0
vt 0.19547895 4.0253165e-2
vt 0.19547895 1.00000000
vt 0.26063860 0.0000000e+0
vt 0.26063860 4.0253165e-2
vt 0.32579825 0.0000000e+0
vt 0.32579825 4.0253165e-2
vt 0.39095790 0.0000000e+0
vt 0.39095790 4.0253165e-2
vt 0.39095790 1.00000000
vt 0.45611756 0.0000000e+0
vt 0.45611756 4.0253165e-2
vt 0.52127721 0.0000000e+0
vt 0.52127721 4.0253165e-2
vt 0.58643686 0.0000000e+0
vt 0.58643686 4.0253165e-2
vt 0.58643686 1.00000000
vt 0.58643686 0.0000000e+0
vt 0.58643686 4.0253165e-2
vt 0.58643686 1.00000000
vt 0.65159651 0.0000000e+0
vt 0.65159651 4.0253165e-2
vt 0.71675616 0.0000000e+0
vt 0.71675616 4.0253165e-2
vt 0.78191581 0.0000000e+0
vt 0.78191581 4.0253165e-2
vt 0.78191581 0.19547895
vt 0.78191581 1.00000000
vt 0.78191581 0.0000000e+0
vt 0.78191581 0.19547895
vt 0.79009146 0.21503739
vt 0.83889981 0.21503739
vt 0.84707546 0.19547895
vt 0.84707546 0.21503739
vt 0.84707546 0.23459583
vt 0.84707546 0.23459583
vt 0.85525111 0.19547895
vt 0.85525111 0.21503739
vt 0.85525111 0.25415427
vt 0.90405946 0.21503739
vt 0.90405946 0.25415427
vt 0.90405946 0.19547895
vt 0.91223511 0.20365460
vt 0.91223511 0.21503739
vt 0.91223511 0.23459583
vt 0.91223511 0.23459583
vt 0.91223511 0.25246295
vt 0.91223511 0.26881425
vt 0.91223511 0.31762260
vt 0.91223511 0.32579825
vt 0.91223511 0.39095790
vt 0.91223511 0.45611756
vt 0.91223511 0.49612920
vt 0.91223511 0.61628490
vt 0.91223511 0.65629654
vt 0.91223511 0.65653806
vt 0.91223511 0.69654971
vt 0.91223511 0.69667047
vt 0.91223511 0.73692363
vt 0.91223511 0.77717680
vt 0.91223511 0.77729756
vt 0.91223511 0.81730920
vt 0.91223511 0.81755072
vt 0.91223511 0.85756237
vt 0.91223511 0.85768313
vt 0.91223511 0.89793629
vt 0.91223511 0.89793629
vt 0.91223511 0.93818946
vt 0.91223511 0.49612920
vt 0.91223511 0.53614085
vt 0.91223511 0.53614085
vt 0.91223511 0.57615249
vt 0.91223511 0.61616414
vt 0.93179355 0.19547895
vt 0.93179355 0.26063860
vt 0.93179355 0.32579825
vt 0.93179355 0.33397390
vt 0.93179355 0.38278225
vt 0.93179355 0.39913356
vt 0.93179355 0.44794191
vt 0.93343321 0.69667047
vt 0.93343321 0.61616414
vt 0.93343321 0.65641730
vt 0.93343321 0.65641730
vt 0.93343321 0.69679123
vt 0.93343321 0.73680287
vt 0.93343321 0.73704439
vt 0.93343321 0.77705604
vt 0.93343321 0.77717680
vt 0.93343321 0.81742996
vt 0.93343321 0.85768313
vt 0.93343321 0.85780389
vt 0.93343321 0.89781553
vt 0.93343321 0.89805705
vt 0.93343321 0.93806870
vt 0.96104346 0.45611756
vt 0.96104346 0.49612920
vt 0.96104346 0.53614085
vt 0.96104346 0.57615249
vt 0.96104346 0.61616414
vt 0.96104346 0.49612920
vt 0.96104346 0.53614085
vt 0.97739476 0.0000000e+0
vt 0.97739476 0.19547895
vn -0.70710678 0.0000000e+0 -0.70710678
vn -0.70710678 0.0000000e+0 0.70710678
vn -0.48507125 0.48507125 -0.72760688
vn -0.80178373 0.26726124 0.53452248
vn 0.70710678 0.0000000e+0 -0.70710678
vn 0.70710678 0.0000000e+0 0.70710678
vn 0.66666667 0.33333333 -0.66666667
vn 0.63960215 0.42640143 0.63960215
vn -0.57735027 -0.57735027 0.57735027
vn -0.66666667 -0.33333333 -0.66666667
vn 0.57735027 -0.57735027 -0.57735027
vn 0.66666667 -0.33333333 0.66666667
vn -0.90485230 -0.31289111 0.28868924
vn -0.92811278 -0.27362481 -0.25246015
vn 0.33528861 -0.36339708 -0.86920890
vn -0.20066926 -0.21749210 -0.95521151
vn 0.20066926 -0.21749210 0.95521151
vn -0.33528861 -0.36339708 0.86920890
vn 0.95521151 -0.21749210 0.20066926
vn 0.86920890 -0.36339708 -0.33528861
vn -0.71508410 -0.51377395 0.47401588
vn -0.71508410 -0.51377395 -0.47401588
vn -0.47401588 -0.51377395 -0.71508410
vn 0.35411109 -0.76761699 -0.53419986
vn 0.71508410 -0.51377395 -0.47401588
vn 0.71508410 -0.51377395 0.47401588
vn 0.47401588 -0.51377395 0.71508410
vn -0.35411109 -0.76761699 0.53419986
vn -0.71509130 -0.51375953 -0.47402065
vn -0.71509130 -0.51375953 0.47402065
vn -0.71509130 0.51375953 0.47402065
vn -0.71509130 0.51375953 -0.47402065
vn 0.47402065 -0.51375953 -0.71509130
vn -0.47402065 -0.51375953 -0.71509130
vn -0.47402065 0.51375953 -0.71509130
vn 0.47402065 0.51375953 -0.71509130
vn -0.47402065 -0.51375953 0.71509130
vn 0.47402065 -0.51375953 0.71509130
vn 0.47402065 0.51375953 0.71509130
vn -0.47402065 0.51375953 0.71509130
vn 0.71509130 -0.51375953 0.47402065
vn 0.71509130 -0.51375953 -0.47402065
vn 0.71509130 0.51375953 -0.47402065
vn 0.71509130 0.51375953 0.47402065
g Cube1_Cube1_auv
usemtl Cube1_auv
s 1
f 1/26/1 10/25/10 13/32/13
f 2/12/2 17/15/17 4/13/4
f 2/36/2 22/33/22 9/35/9
f 2/12/2 27/14/27 17/15/17
f 3/40/3 8/113/8 7/114/7
f 3/27/3 13/32/13 4/38/4
f 3/8/3 15/7/15 1/10/1
f 4/39/4 8/113/8 3/40/3
f 4/38/4 14/34/14 2/36/2
f 4/13/4 17/15/17 8/20/8
f 5/29/5 7/30/7 19/24/19
f 5/3/5 16/5/16 7/1/7
f 5/3/5 23/4/23 16/5/16
f 5/29/5 26/23/26 11/28/11
f 6/19/6 18/17/18 12/18/12
f 6/19/6 20/22/20 8/20/8
f 7/1/7 16/5/16 3/8/3
f 8/20/8 18/17/18 6/19/6
f 8/20/8 19/24/19 7/30/7
f 9/11/9 27/14/27 2/12/2
f 10/9/10 15/7/15 24/6/24
f 12/18/12 18/17/18 28/16/28
f 12/18/12 20/22/20 6/19/6
f 13/32/13 3/27/3 1/26/1
f 13/85/13 29/53/29 14/84/14
f 14/34/14 4/38/4 13/32/13
f 14/34/14 22/33/22 2/36/2
f 14/100/14 29/72/29 22/99/22
f 15/7/15 3/8/3 16/5/16
f 15/7/15 10/9/10 1/10/1
f 15/91/15 36/66/36 24/93/24
f 16/45/16 34/48/34 15/55/15
f 17/43/17 38/42/38 18/37/18
f 18/17/18 8/20/8 17/15/17
f 18/101/18 40/73/40 28/100/28
f 19/24/19 8/20/8 20/22/20
f 19/24/19 26/23/26 5/29/5
f 19/94/19 41/65/41 26/92/26
f 20/61/20 41/90/41 19/62/19
f 21/31/21 13/32/13 10/25/10
f 21/69/21 31/97/31 13/70/13
f 22/60/22 31/88/31 21/61/21
f 23/4/23 5/3/5 11/2/11
f 23/77/23 34/105/34 16/78/16
f 24/44/24 36/47/36 23/54/23
f 25/21/25 20/22/20 12/18/12
f 25/68/25 43/95/43 20/69/20
f 26/86/26 43/58/43 25/85/25
f 27/75/27 38/103/38 17/76/17
f 28/56/28 40/51/40 27/46/27
f 29/53/29 13/85/13 30/57/30
f 30/98/30 13/70/13 31/97/31
f 30/82/30 31/80/31 29/109/29
f 31/88/31 22/60/22 32/87/32
f 32/71/32 22/99/22 29/72/29
f 32/108/32 29/109/29 31/80/31
f 33/50/33 15/55/15 34/48/34
f 33/67/33 36/66/36 15/91/15
f 34/105/34 23/77/23 35/104/35
f 34/81/34 36/107/36 33/112/33
f 35/52/35 23/54/23 36/47/36
f 35/63/35 36/107/36 34/81/34
f 37/41/37 18/37/18 38/42/38
f 37/74/37 40/73/40 18/101/18
f 38/103/38 27/75/27 39/102/39
f 38/83/38 40/109/40 37/110/37
f 39/49/39 27/46/27 40/51/40
f 39/82/39 40/109/40 38/83/38
f 41/90/41 20/61/20 42/89/42
f 42/96/42 20/69/20 43/95/43
f 42/79/42 43/62/43 41/111/41
f 43/58/43 26/86/26 44/59/44
f 44/64/44 26/92/26 41/65/41
f 44/106/44 41/111/41 43/62/43
g Cube1_default
usemtl default
s 1
f 9//9 22//22 27//27
f 10//10 24//24 21//21
f 11//11 26//26 23//23
f 12//12 28//28 25//25
f 21//21 24//24 22//22
f 22//22 23//23 27//27
f 23//23 22//22 24//24
f 25//25 28//28 26//26
f 26//26 27//27 23//23
f 27//27 26//26 28//28
