# 3ds Max Wavefront OBJ Exporter v0.97b - (c)2007 guruware
# File Created: 10.05.2015 19:14:15

mtllib LP_Car_4.mtl

#
# object Box001
#

v  9.4685 4.9159 -14.0062
v  9.4685 4.9159 -7.6542
v  -9.4685 4.9159 -14.0062
v  -8.7056 24.4156 -11.1281
v  -8.7056 24.4156 -7.6542
v  8.7041 24.4156 -11.1281
v  -9.4685 4.9159 -7.6542
v  -10.5147 8.3929 -14.0062
v  -9.4685 4.9159 27.6460
v  10.5147 8.3929 27.6460
v  -10.5147 8.3929 27.6460
v  9.4685 4.9159 8.7308
v  10.5147 8.3929 8.7308
v  9.4685 4.9159 -27.6460
v  -10.5147 8.3929 -27.6460
v  10.5147 8.3929 -27.6460
v  -10.5147 8.3929 -7.6542
v  -10.5147 13.3362 -14.0062
v  -7.4848 8.8660 26.3831
v  7.4848 8.8660 26.3831
v  -7.4848 11.4417 26.3831
v  10.5147 8.3929 -7.6542
v  10.5147 13.3362 8.7308
v  7.2902 8.3929 -27.2417
v  -7.2902 8.3929 -27.2417
v  7.2902 13.3362 -27.2417
v  10.3704 7.9837 11.7490
v  10.3704 7.9837 20.4152
v  -10.3741 7.9837 11.7490
v  -10.3740 7.9891 -15.3724
v  -10.3740 7.9891 -24.5926
v  10.3704 7.9891 -15.3724
v  -10.5147 13.3362 11.7490
v  -10.5147 13.3362 20.4152
v  10.5147 13.3362 11.7490
v  10.5147 13.3362 -15.3724
v  10.5147 13.3362 -24.5926
v  -10.5147 13.3362 -15.3724
v  -10.3741 7.9837 20.4152
v  -10.5147 8.3929 11.7490
v  -10.5147 8.3929 -15.3724
v  -10.5147 8.3929 -24.5926
v  10.3704 7.9891 -24.5926
v  10.5147 8.3929 -15.3724
v  10.5147 8.3929 11.7490
v  10.5147 8.3929 20.4152
v  -10.5147 8.3929 20.4152
v  -10.5147 13.3362 -24.5926
v  10.5147 8.3929 -24.5926
v  10.5147 13.3362 20.4152
v  -10.5147 13.3362 -7.6542
v  -9.8495 14.0401 7.8744
v  8.1211 23.7068 2.8829
v  -8.1549 23.7068 2.8829
v  10.0438 14.0123 7.6661
v  10.0438 14.0123 -7.0916
v  8.3143 23.6966 2.6574
v  10.0543 13.7670 -13.3467
v  -8.3376 23.8965 -10.8023
v  8.3361 23.8966 -10.8023
v  -8.7056 24.4156 3.0098
v  8.7041 24.4156 -7.6542
v  -9.4685 4.9159 8.7308
v  -10.5147 8.3929 8.7308
v  10.5147 8.3929 -14.0062
v  10.5147 13.3362 -7.6542
v  -10.0438 14.0123 -7.0916
v  -10.0438 14.0123 7.6661
v  -8.3157 23.6966 -7.0916
v  10.5147 13.3362 -14.0062
v  10.5147 14.0123 -7.0916
v  10.5147 14.0123 7.6661
v  8.7041 23.6966 -7.0916
v  8.7041 23.6966 2.6574
v  8.7041 24.4156 3.0098
v  -10.5147 13.3362 8.7308
v  -8.7056 23.6966 2.6574
v  -10.5147 14.0123 7.6661
v  -8.7056 23.6966 -7.0916
v  -10.5147 14.0123 -7.0916
v  9.8623 14.0426 8.3660
v  -9.8495 14.0426 8.3660
v  8.1211 23.7092 3.3746
v  -8.1549 23.7092 3.3746
v  9.8623 14.0401 7.8744
v  8.3143 23.6966 -7.0916
v  -8.3157 23.6966 2.6574
v  -10.5147 8.3929 26.9161
v  -7.4848 8.8660 26.9161
v  -10.1705 8.8660 26.9161
v  10.5147 8.3929 26.9161
v  10.1705 11.4417 26.9161
v  10.1705 8.8660 26.9161
v  10.5147 13.3362 26.9161
v  7.4848 12.8905 26.9161
v  10.1705 12.8905 26.9161
v  -10.5147 13.3362 26.9161
v  -10.1705 11.4417 26.9161
v  -10.1705 12.8905 26.9161
v  -9.4685 4.9159 26.9161
v  9.4685 4.9159 27.6460
v  9.4685 4.9159 26.9161
v  7.4848 8.8660 26.9161
v  10.1705 8.8660 26.3831
v  -7.4848 12.8905 26.9161
v  7.4848 12.8905 26.3831
v  -10.1705 12.8905 26.3831
v  7.4848 8.8660 25.8500
v  10.1705 8.8660 25.8500
v  7.4848 11.4417 25.8500
v  -7.4848 12.8905 26.1529
v  -10.1705 12.8905 26.1529
v  -7.4848 11.4417 26.1529
v  -10.1705 8.8660 26.3831
v  -7.4848 12.8905 26.3831
v  10.1705 12.8905 26.3831
v  10.1705 11.4417 26.3831
v  7.4848 12.8905 25.8500
v  10.1705 12.8905 25.8500
v  7.4848 11.4417 26.3831
v  -7.4848 8.8660 25.8500
v  -10.1705 8.8660 25.8500
v  -10.1705 12.8905 25.8500
v  -7.4848 12.8905 25.8500
v  -10.1705 11.4417 26.3831
v  10.1705 11.4417 26.1529
v  10.1705 12.8905 26.1529
v  7.4848 11.4417 26.1529
v  -10.1705 11.4417 25.8500
v  -7.4848 11.4417 25.8500
v  10.1705 11.4417 25.8500
v  -10.1705 11.4417 26.1529
v  7.4848 12.8905 26.1529
v  9.4685 4.9159 20.7419
v  -9.4685 4.9159 20.7419
v  -9.4685 4.9159 11.4222
v  9.4685 4.9159 11.4222
v  -10.5147 13.3362 20.7419
v  10.5147 13.3362 20.7419
v  10.5147 13.3362 11.4222
v  -10.5147 13.3362 11.4222
v  -10.5147 8.3929 20.7419
v  -10.5147 8.3929 11.4222
v  10.5147 8.3929 20.7419
v  10.5147 8.3929 11.4222
v  -9.4685 4.9159 -25.0026
v  -9.4685 4.9159 -27.2417
v  9.4685 4.9159 -25.0026
v  9.4685 4.9159 -14.9624
v  -9.4685 4.9159 -14.9624
v  10.5147 13.3362 -25.0026
v  10.5147 13.3362 -27.2417
v  -10.5147 13.3362 -25.0026
v  -10.5147 13.3362 -14.9624
v  10.5147 13.3362 -14.9624
v  -10.5147 8.3929 -25.0026
v  -10.5147 8.3929 -27.2417
v  -10.5147 8.3929 -14.9624
v  9.4685 4.9159 -27.2417
v  10.5147 8.3929 -25.0026
v  10.5147 8.3929 -14.9624
v  -10.5147 13.3362 -27.2417
v  10.5147 8.3929 -27.2417
v  -10.0078 13.7754 -13.8935
v  10.0543 13.7734 -13.8935
v  -8.3376 23.9030 -11.2693
v  8.3361 23.9030 -11.2693
v  -10.0078 13.7690 -13.3467
v  -9.4685 4.9159 -27.6460
v  -7.2902 13.3362 -27.2417
# 170 vertices

vn -0.0000 -1.0000 -0.0000
vn -0.0000 1.0000 0.0000
vn -0.7575 -0.6528 -0.0000
vn -0.0000 0.0000 1.0000
vn 0.7575 -0.6528 0.0000
vn 0.0000 0.0000 -1.0000
vn -1.0000 0.0000 -0.0000
vn 1.0000 0.0000 0.0000
vn -0.0000 -0.9027 0.4303
vn 0.0000 -0.9027 -0.4303
vn -0.0000 -0.9030 0.4296
vn 0.0000 -0.9091 -0.4165
vn -0.0000 -0.9091 0.4165
vn 0.0000 -0.9089 -0.4171
vn 0.0000 1.0000 -0.0000
vn -0.7325 -0.6804 0.0204
vn -0.6934 -0.6828 -0.2302
vn -0.7125 -0.7016 -0.0000
vn -0.7294 -0.6837 -0.0229
vn -0.7078 -0.7064 -0.0000
vn -0.6930 -0.6917 -0.2031
vn 0.7233 -0.6902 -0.0198
vn 0.6791 -0.6954 0.2352
vn 0.6987 -0.7154 0.0000
vn 0.7278 -0.6853 0.0250
vn 0.7035 -0.7107 0.0000
vn 0.6775 -0.6845 0.2690
vn -0.9058 0.4237 -0.0000
vn -0.0000 0.7911 0.6117
vn 0.8903 0.4554 0.0000
vn 0.0000 0.5325 -0.8464
vn -0.8904 0.4551 -0.0000
vn 0.9057 0.4239 0.0000
vn 1.0000 -0.0000 0.0000
vn 0.8598 0.4604 -0.2210
vn 0.9479 0.2470 -0.2012
vn -0.7725 0.6155 0.1561
vn -1.0000 -0.0000 -0.0000
vn -0.8572 0.4587 0.2341
vn -0.0000 1.0000 -0.0020
vn -0.8892 -0.4576 0.0009
vn -0.0000 -1.0000 0.0020
vn 0.8941 -0.4478 0.0009
vn -0.0000 -0.0000 1.0000
vn 0.0000 -1.0000 -0.0000
vn 0.0000 -0.7916 -0.6111
vn 0.0000 1.0000 0.0000
vn 0.0000 -0.7029 -0.7113
vn 0.0000 -0.7026 -0.7116
vn -0.0000 -0.7026 0.7116
vn -0.0000 -0.7029 0.7113
vn -0.7569 -0.6535 -0.0052
vn -0.7489 -0.6625 0.0142
vn -0.7575 -0.6528 0.0053
vn 0.7471 -0.6645 -0.0171
vn 0.7575 -0.6528 -0.0064
vn 0.7568 -0.6537 0.0062
vn 0.0000 -0.9030 -0.4296
vn -0.7327 -0.6802 -0.0209
vn 0.7276 -0.6856 -0.0247
vn -0.0000 -0.7311 0.6823
vn -0.0000 -0.7313 0.6821
vn 0.0000 -0.7313 -0.6821
vn 0.0000 -0.7311 -0.6823
vn -0.7497 -0.6617 0.0137
vn -0.7575 -0.6528 0.0056
vn -0.7567 -0.6537 -0.0054
vn 0.7565 -0.6539 0.0064
vn 0.7482 -0.6633 -0.0163
vn 0.7575 -0.6528 -0.0066
vn -0.0000 -0.9089 0.4171
vn -0.7285 -0.6848 0.0166
vn 0.7244 -0.6889 0.0269
vn 0.0000 0.5425 -0.8401
vn -0.0018 0.5450 -0.8385
vn -0.0000 0.5679 -0.8231
vn 0.0135 0.5489 -0.8358
vn 0.0000 1.0000 0.0047
vn 0.9047 -0.4261 -0.0020
vn 0.0000 -1.0000 -0.0055
vn -0.9000 -0.4358 -0.0024
vn -0.9058 0.4237 0.0000
vn 0.8852 0.4143 0.2115
vn 0.8121 0.5656 0.1434
vn -0.9595 0.2185 -0.1780
vn -0.8877 0.4152 -0.1992
vn 0.0000 0.7911 0.6117
vn 0.0000 1.0000 -0.0020
vn -0.0000 -1.0000 0.0000
vn 0.0000 0.5407 -0.8412
vn -0.0130 0.5496 -0.8353
vn 0.0000 0.5679 -0.8231
vn 0.0016 0.5459 -0.8379
vn 0.9048 -0.4259 -0.0023
vn -0.9000 -0.4359 -0.0020
# 95 vertex normals

vt 0.6667 1.0000 0.0000
vt 0.5667 1.0000 0.0000
vt 0.6667 0.0000 0.0000
vt 0.3333 0.0000 0.0000
vt 0.4333 0.0000 0.0000
vt 0.3333 1.0000 0.0000
vt 0.0000 0.0000 0.0000
vt 1.0000 1.0000 0.0000
vt 0.0000 1.0000 0.0000
vt 0.5667 0.0000 0.0000
vt 1.0000 0.1320 0.0000
vt 1.0000 0.8680 0.0000
vt 0.4333 1.0000 0.0000
vt 0.0000 0.8467 0.0000
vt 0.0000 0.1533 0.0000
vt 0.2780 1.0000 0.0000
vt 0.1433 1.0000 0.0000
vt 0.2780 0.0000 0.0000
vt 0.7048 0.0000 0.0000
vt 0.9619 0.0000 0.0000
vt 0.7048 1.0000 0.0000
vt 0.7220 0.0000 0.0000
vt 0.8567 0.0000 0.0000
vt 0.7220 1.0000 0.0000
vt 0.2952 1.0000 0.0000
vt 0.0381 1.0000 0.0000
vt 0.2952 0.0000 0.0000
vt 0.0381 0.0000 0.0000
vt 0.8567 1.0000 0.0000
vt 1.0000 0.0000 0.0000
vt 0.1373 1.0000 0.0000
vt 0.1373 0.0000 0.0000
vt 0.2840 0.0000 0.0000
vt 0.2840 1.0000 0.0000
vt 0.8627 0.0000 0.0000
vt 0.8627 1.0000 0.0000
vt 0.7160 1.0000 0.0000
vt 0.7160 0.0000 0.0000
vt 0.1433 0.0000 0.0000
vt 0.9733 0.0000 0.0000
vt 0.9733 1.0000 0.0000
vt 0.6933 1.0000 0.0000
vt 0.6933 0.0000 0.0000
vt 0.0267 1.0000 0.0000
vt 0.0267 0.0000 0.0000
vt 0.3067 0.0000 0.0000
vt 0.3067 1.0000 0.0000
vt 0.9619 1.0000 0.0000
vt 0.1533 1.0000 0.0000
vt 0.8467 1.0000 0.0000
# 50 texture coords

g Box001
usemtl wire_115115115
s 2
f 1/1/1 2/2/1 3/3/1 
s 4
f 4/4/2 5/5/2 6/6/2 
s 8
f 3/4/3 7/5/3 8/6/3 
s 16
f 9/7/4 10/8/4 11/9/4 
s 32
f 12/4/5 2/10/5 13/6/5 
s 64
f 14/7/6 15/8/6 16/9/6 
s off
f 8/4/7 17/5/7 18/4/7 
f 19/11/4 20/12/4 21/11/4 
f 13/1/8 22/13/8 23/1/8 
f 24/14/6 25/15/6 26/14/6 
s 2
f 27/16/9 28/17/10 29/18/11 
f 30/19/12 31/20/13 32/21/14 
s 4
f 33/22/15 34/23/15 35/24/15 
f 36/25/15 37/26/15 38/27/15 
s 8
f 29/22/16 39/23/17 40/24/18 
f 41/25/19 42/26/20 30/27/21 
s 32
f 32/19/22 43/20/23 44/21/24 
f 45/16/25 46/17/26 27/18/27 
s off
f 40/22/7 47/23/7 33/22/7 
f 38/27/7 48/28/7 41/27/7 
f 44/25/8 49/26/8 36/25/8 
f 35/24/8 50/29/8 45/24/8 
f 18/4/28 51/5/28 4/4/28 
f 52/3/29 53/1/29 54/3/29 
f 55/1/30 56/13/30 57/1/30 
f 58/6/31 59/4/31 60/6/31 
s 2
f 2/2/1 12/6/1 7/10/1 
s 4
f 5/5/2 61/3/15 62/13/2 
s 8
f 7/5/3 63/3/3 17/13/3 
s 32
f 2/10/5 1/3/5 22/2/5 
s off
f 17/5/7 64/3/7 51/5/7 
f 22/13/8 65/6/8 66/13/8 
f 67/5/32 68/3/32 69/5/32 
f 66/13/33 70/6/33 62/13/33 
f 23/1/34 71/13/34 72/1/34 
f 66/13/35 73/13/35 71/13/35 
f 62/13/8 74/1/8 73/13/8 
f 75/1/36 72/1/36 74/1/36 
f 76/3/37 77/3/37 78/3/37 
f 61/3/38 79/5/38 77/3/38 
f 5/5/39 80/5/39 79/5/39 
f 51/5/38 78/3/38 80/5/38 
f 76/3/29 81/1/29 82/3/29 
f 23/1/29 83/1/29 81/1/29 
f 75/1/29 84/3/29 83/1/29 
f 61/3/29 82/3/29 84/3/29 
f 82/3/40 85/1/40 52/3/40 
f 81/1/41 53/1/41 85/1/41 
f 83/1/42 54/3/42 53/1/42 
f 84/3/43 52/3/43 54/3/43 
f 72/1/2 56/13/2 55/1/2 
f 71/13/44 86/13/44 56/13/44 
f 73/13/45 57/1/45 86/13/45 
f 74/1/46 55/1/46 57/1/46 
f 78/3/46 87/3/46 68/3/46 
f 77/3/45 69/5/45 87/3/45 
f 79/5/44 67/5/44 69/5/44 
f 80/5/47 68/3/47 67/5/47 
f 88/30/4 89/11/4 90/30/4 
f 91/8/4 92/8/4 93/8/4 
f 94/8/4 95/12/4 96/8/4 
f 97/30/4 98/30/4 99/30/4 
f 100/7/1 101/30/1 9/7/1 
f 102/30/5 10/8/5 101/30/5 
f 91/8/15 11/9/15 10/8/15 
f 88/9/3 9/7/3 11/9/3 
f 89/11/15 103/12/15 19/11/15 
f 93/8/7 92/8/7 104/8/7 
f 95/12/45 105/11/45 106/12/45 
f 99/30/8 98/30/8 107/30/8 
f 108/12/4 109/8/4 110/12/4 
f 111/11/4 112/30/4 113/11/4 
f 103/12/15 93/8/15 20/12/15 
f 19/11/15 114/30/15 89/11/15 
f 105/11/45 99/30/45 115/11/45 
f 106/12/45 116/8/45 95/12/45 
f 104/8/7 117/8/7 109/8/7 
f 116/8/45 118/12/45 119/8/45 
f 106/12/8 120/12/8 118/12/8 
f 20/12/15 109/8/15 108/12/15 
f 114/30/15 121/11/15 122/30/15 
f 19/11/38 21/11/38 121/11/38 
f 115/11/45 123/30/45 124/11/45 
f 107/30/8 125/30/8 123/30/8 
f 120/12/4 106/12/4 21/11/4 
f 92/8/7 96/8/7 117/8/7 
f 98/30/8 90/30/8 125/30/8 
f 126/8/4 127/8/4 128/12/4 
f 129/30/4 122/30/4 130/11/4 
f 117/8/7 116/8/7 131/8/7 
f 120/12/8 20/12/8 110/12/8 
f 21/11/7 115/11/7 130/11/7 
f 125/30/8 114/30/8 129/30/8 
f 124/11/15 112/30/15 111/11/15 
f 123/30/7 132/30/7 112/30/7 
f 129/30/45 113/11/45 132/30/45 
f 130/11/8 111/11/8 113/11/8 
f 119/8/15 133/12/15 127/8/15 
f 118/12/7 128/12/7 133/12/7 
f 110/12/45 126/8/45 128/12/45 
f 131/8/8 127/8/8 126/8/8 
s 2
f 134/31/48 102/9/1 135/32/49 
f 136/33/50 63/4/1 137/34/51 
s 4
f 138/35/15 97/30/15 139/36/15 
f 140/37/15 23/1/15 141/38/15 
s 8
f 135/35/52 100/30/3 142/36/3 
f 143/37/53 64/1/3 136/38/54 
s 32
f 144/31/55 91/9/5 134/32/56 
f 137/33/57 12/4/5 145/34/5 
s off
f 142/35/7 88/30/7 138/35/7 
f 141/38/7 76/3/7 143/38/7 
f 139/36/8 94/8/8 144/36/8 
f 145/37/8 13/1/8 140/37/8 
s 2
f 28/17/10 134/31/48 39/39/58 
f 29/18/11 136/33/50 27/16/9 
s 4
f 34/23/15 138/35/15 50/29/15 
f 35/24/15 140/37/15 33/22/15 
s 8
f 39/23/17 135/35/52 47/29/59 
f 40/24/18 143/37/53 29/22/16 
s 32
f 46/17/26 144/31/55 28/39/60 
f 27/18/27 137/33/57 45/16/25 
s off
f 47/23/7 142/35/7 34/23/7 
f 33/22/7 141/38/7 40/22/7 
f 50/29/8 139/36/8 46/29/8 
f 45/24/8 145/37/8 35/24/8 
s 2
f 146/40/61 147/30/1 148/41/62 
f 149/42/63 1/1/1 150/43/64 
s 4
f 151/44/15 152/9/15 153/45/15 
f 154/46/15 18/4/15 155/47/15 
s 8
f 156/44/65 157/9/3 146/45/66 
f 150/46/67 3/4/3 158/47/3 
s 32
f 148/40/68 159/30/5 160/41/5 
f 161/42/69 65/1/5 149/43/70 
s off
f 153/45/7 162/7/7 156/45/7 
f 158/46/7 8/4/7 154/46/7 
f 160/44/8 163/9/8 151/44/8 
f 155/47/8 70/6/8 161/47/8 
s 2
f 31/20/13 146/40/61 43/48/71 
f 32/21/14 149/42/63 30/19/12 
s 4
f 37/26/15 151/44/15 48/28/15 
f 38/27/15 154/46/15 36/25/15 
s 8
f 42/26/20 156/44/65 31/28/72 
f 30/27/21 150/46/67 41/25/19 
s 32
f 43/20/23 148/40/68 49/48/73 
f 44/21/24 161/42/69 32/19/22 
s off
f 48/28/7 153/45/7 42/28/7 
f 41/27/7 158/46/7 38/27/7 
f 49/26/8 160/44/8 37/26/8 
f 36/25/8 155/47/8 44/25/8 
f 70/6/74 164/4/74 165/6/74 
f 18/4/75 166/4/75 164/4/75 
f 4/4/76 167/6/76 166/4/76 
f 6/6/77 165/6/77 167/6/77 
f 165/6/78 168/4/78 58/6/78 
f 164/4/79 59/4/79 168/4/79 
f 166/4/80 60/6/80 59/4/80 
f 167/6/81 58/6/81 60/6/81 
f 159/7/1 169/30/1 14/7/1 
f 147/30/3 15/8/3 169/30/3 
f 157/8/15 16/9/15 15/8/15 
f 163/9/5 14/7/5 16/9/5 
f 25/15/6 157/7/6 170/15/6 
f 26/14/6 152/9/6 24/14/6 
s 2
f 2/2/1 7/10/1 3/3/1 
s 4
f 5/5/2 62/13/2 6/6/2 
s 8
f 7/5/3 17/13/3 8/6/3 
s 16
f 9/7/4 101/30/4 10/8/4 
s 32
f 2/10/5 22/2/5 13/6/5 
s 64
f 14/7/6 169/30/6 15/8/6 
s off
f 17/5/7 51/5/7 18/4/7 
f 20/12/4 120/12/4 21/11/4 
f 22/13/8 66/13/8 23/1/8 
f 25/15/6 170/15/6 26/14/6 
s 2
f 28/17/10 39/39/58 29/18/11 
f 31/20/13 43/48/71 32/21/14 
s 4
f 34/23/15 50/29/15 35/24/15 
f 37/26/15 48/28/15 38/27/15 
s 8
f 39/23/17 47/29/59 40/24/18 
f 42/26/20 31/28/72 30/27/21 
s 32
f 43/20/23 49/48/73 44/21/24 
f 46/17/26 28/39/60 27/18/27 
s off
f 47/23/7 34/23/7 33/22/7 
f 48/28/7 42/28/7 41/27/7 
f 49/26/8 37/26/8 36/25/8 
f 50/29/8 46/29/8 45/24/8 
f 51/5/82 5/5/82 4/4/82 
f 52/3/29 85/1/29 53/1/29 
f 56/13/30 86/13/30 57/1/30 
f 58/6/31 168/4/31 59/4/31 
s 2
f 12/6/1 63/4/1 7/10/1 
s 4
f 61/3/15 75/1/15 62/13/2 
s 8
f 63/3/3 64/1/3 17/13/3 
s 32
f 1/3/5 65/1/5 22/2/5 
s off
f 64/3/7 76/3/7 51/5/7 
f 65/6/8 70/6/8 66/13/8 
f 68/3/32 87/3/32 69/5/32 
f 70/6/33 6/6/33 62/13/33 
f 23/1/8 66/13/8 71/13/8 
f 66/13/83 62/13/83 73/13/83 
f 62/13/8 75/1/8 74/1/8 
f 75/1/84 23/1/84 72/1/84 
f 76/3/85 61/3/85 77/3/85 
f 61/3/7 5/5/7 79/5/7 
f 5/5/86 51/5/86 80/5/86 
f 51/5/7 76/3/7 78/3/7 
f 76/3/29 23/1/29 81/1/29 
f 23/1/87 75/1/87 83/1/87 
f 75/1/29 61/3/29 84/3/29 
f 61/3/29 76/3/29 82/3/29 
f 82/3/88 81/1/88 85/1/88 
f 81/1/41 83/1/41 53/1/41 
f 83/1/42 84/3/42 54/3/42 
f 84/3/43 82/3/43 52/3/43 
f 72/1/47 71/13/47 56/13/47 
f 71/13/44 73/13/44 86/13/44 
f 73/13/45 74/1/45 57/1/45 
f 74/1/46 72/1/46 55/1/46 
f 78/3/46 77/3/46 87/3/46 
f 77/3/45 79/5/45 69/5/45 
f 79/5/44 80/5/44 67/5/44 
f 80/5/2 78/3/2 68/3/2 
f 88/30/4 91/8/4 93/8/4 
f 88/30/4 93/8/4 103/12/4 
f 88/30/4 103/12/4 89/11/4 
f 91/8/4 94/8/4 96/8/4 
f 91/8/4 96/8/4 92/8/4 
f 94/8/4 97/30/4 99/30/4 
f 94/8/4 99/30/4 105/11/4 
f 94/8/4 105/11/4 95/12/4 
f 97/30/4 88/30/4 90/30/4 
f 97/30/4 90/30/4 98/30/4 
f 100/7/1 102/30/1 101/30/1 
f 102/30/5 91/8/5 10/8/5 
f 91/8/15 88/9/15 11/9/15 
f 88/9/3 100/7/3 9/7/3 
f 103/12/15 20/12/15 19/11/15 
f 92/8/7 117/8/7 104/8/7 
f 105/11/45 115/11/45 106/12/45 
f 98/30/8 125/30/8 107/30/8 
f 109/8/4 131/8/4 110/12/4 
f 112/30/4 132/30/4 113/11/4 
f 93/8/15 104/8/15 20/12/15 
f 114/30/15 90/30/15 89/11/15 
f 99/30/45 107/30/45 115/11/45 
f 116/8/45 96/8/45 95/12/45 
f 117/8/7 131/8/7 109/8/7 
f 116/8/45 106/12/45 118/12/45 
f 120/12/8 110/12/8 118/12/8 
f 20/12/15 104/8/15 109/8/15 
f 114/30/15 19/11/15 121/11/15 
f 21/11/38 130/11/38 121/11/38 
f 115/11/45 107/30/45 123/30/45 
f 125/30/8 129/30/8 123/30/8 
f 106/12/4 115/11/4 21/11/4 
f 96/8/7 116/8/7 117/8/7 
f 90/30/8 114/30/8 125/30/8 
f 127/8/4 133/12/4 128/12/4 
f 122/30/4 121/11/4 130/11/4 
f 116/8/7 119/8/7 131/8/7 
f 20/12/8 108/12/8 110/12/8 
f 115/11/7 124/11/7 130/11/7 
f 114/30/8 122/30/8 129/30/8 
f 124/11/15 123/30/15 112/30/15 
f 123/30/7 129/30/7 132/30/7 
f 129/30/45 130/11/45 113/11/45 
f 130/11/8 124/11/8 111/11/8 
f 119/8/15 118/12/15 133/12/15 
f 118/12/7 110/12/7 128/12/7 
f 110/12/45 131/8/45 126/8/45 
f 131/8/8 119/8/8 127/8/8 
s 2
f 102/9/1 100/7/1 135/32/49 
f 63/4/1 12/6/1 137/34/51 
s 4
f 97/30/15 94/8/15 139/36/15 
f 23/1/15 76/3/15 141/38/15 
s 8
f 100/30/3 88/8/3 142/36/3 
f 64/1/3 63/3/3 136/38/54 
s 32
f 91/9/5 102/7/5 134/32/56 
f 12/4/5 13/6/5 145/34/5 
s off
f 88/30/7 97/30/7 138/35/7 
f 76/3/7 64/3/7 143/38/7 
f 94/8/8 91/8/8 144/36/8 
f 13/1/8 23/1/8 140/37/8 
s 2
f 134/31/48 135/32/49 39/39/58 
f 136/33/50 137/34/51 27/16/9 
s 4
f 138/35/15 139/36/15 50/29/15 
f 140/37/15 141/38/15 33/22/15 
s 8
f 135/35/52 142/36/3 47/29/59 
f 143/37/53 136/38/54 29/22/16 
s 32
f 144/31/55 134/32/56 28/39/60 
f 137/33/57 145/34/5 45/16/25 
s off
f 142/35/7 138/35/7 34/23/7 
f 141/38/7 143/38/7 40/22/7 
f 139/36/8 144/36/8 46/29/8 
f 145/37/8 140/37/8 35/24/8 
s 2
f 147/30/1 159/8/89 148/41/62 
f 1/1/1 3/3/1 150/43/64 
s 4
f 170/15/15 162/7/15 153/45/15 
f 26/14/15 170/15/15 153/45/15 
f 152/9/15 26/14/15 153/45/15 
f 18/4/15 70/6/15 155/47/15 
s 8
f 157/9/3 147/7/3 146/45/66 
f 3/4/3 8/6/3 158/47/3 
s 32
f 159/30/5 163/8/5 160/41/5 
f 65/1/5 1/3/5 149/43/70 
s off
f 162/7/7 157/7/7 156/45/7 
f 8/4/7 18/4/7 154/46/7 
f 163/9/8 152/9/8 151/44/8 
f 70/6/8 65/6/8 161/47/8 
s 2
f 146/40/61 148/41/62 43/48/71 
f 149/42/63 150/43/64 30/19/12 
s 4
f 151/44/15 153/45/15 48/28/15 
f 154/46/15 155/47/15 36/25/15 
s 8
f 156/44/65 146/45/66 31/28/72 
f 150/46/67 158/47/3 41/25/19 
s 32
f 148/40/68 160/41/5 49/48/73 
f 161/42/69 149/43/70 32/19/22 
s off
f 153/45/7 156/45/7 42/28/7 
f 158/46/7 154/46/7 38/27/7 
f 160/44/8 151/44/8 37/26/8 
f 155/47/8 161/47/8 44/25/8 
f 70/6/90 18/4/90 164/4/90 
f 18/4/91 4/4/91 166/4/91 
f 4/4/92 6/6/92 167/6/92 
f 6/6/93 70/6/93 165/6/93 
f 165/6/78 164/4/78 168/4/78 
f 164/4/94 166/4/94 59/4/94 
f 166/4/80 167/6/80 60/6/80 
f 167/6/95 165/6/95 58/6/95 
f 159/7/1 147/30/1 169/30/1 
f 147/30/3 157/8/3 15/8/3 
f 24/49/15 163/9/15 16/9/15 
f 25/50/15 24/49/15 16/9/15 
f 157/8/15 25/50/15 16/9/15 
f 163/9/5 159/7/5 14/7/5 
f 157/7/6 162/7/6 170/15/6 
f 152/9/6 163/9/6 24/14/6 
# 336 faces

