# Exported from Wings 3D 1.5.3
mtllib NROAD_15x15_turn.mtl
o Cube1
#24 vertices, 36 faces
v 7.50006510 0.0000000e+0 5.00000000
v 5.00006510 0.0000000e+0 5.00000000
v 7.50006510 0.20000000 5.00000000
v 5.00006510 0.20000000 5.00000000
v 7.50006510 0.0000000e+0 7.50000000
v 5.00006510 0.0000000e+0 7.50000000
v 7.50006510 0.20000000 7.50000000
v 5.00006510 0.20000000 7.50000000
v 7.50006510 0.0000000e+0 -7.50000000
v -4.99993490 0.0000000e+0 -7.50000000
v 7.50006510 0.20000000 -7.50000000
v -4.99993490 0.20000000 -7.50000000
v 7.50006510 0.0000000e+0 -5.00000000
v -4.99993490 0.0000000e+0 -5.00000000
v 7.50006510 0.20000000 -5.00000000
v -4.99993490 0.20000000 -5.00000000
v -4.99993490 0.0000000e+0 -7.50000000
v -7.49993490 0.0000000e+0 -7.50000000
v -4.99993490 0.20000000 -7.50000000
v -7.49993490 0.20000000 -7.50000000
v -4.99993490 0.0000000e+0 7.50000000
v -7.49993490 0.0000000e+0 7.50000000
v -4.99993490 0.20000000 7.50000000
v -7.49993490 0.20000000 7.50000000
vt 0.0000000e+0 8.3266727e-17
vt 0.0000000e+0 0.12500000
vt 0.0000000e+0 0.12500000
vt 0.0000000e+0 0.25000000
vt 0.0000000e+0 0.25000000
vt 0.0000000e+0 0.26000000
vt 0.0000000e+0 0.27000000
vt 0.0000000e+0 0.28000000
vt 0.0000000e+0 0.29000000
vt 0.0000000e+0 0.29000000
vt 0.0000000e+0 0.30000000
vt 0.12500000 0.29000000
vt 0.12500000 0.30000000
vt 0.25000000 0.29000000
vt 0.25000000 0.29000000
vt 0.25000000 0.30000000
vt 0.25000000 0.30000000
vt 0.37500000 0.29000000
vt 0.37500000 0.30000000
vt 0.50000000 0.29000000
vt 0.50000000 0.30000000
vt 0.62500000 0.27000000
vt 0.62500000 0.28000000
vt 0.62500000 0.29000000
vt 0.62500000 0.30000000
vt 0.62500000 0.30000000
vt 0.62500000 0.42500000
vt 0.62500000 0.42500000
vt 0.62500000 0.55000000
vt 0.75000000 0.0000000e+0
vt 0.75000000 0.12500000
vt 0.75000000 0.12500000
vt 0.75000000 0.25000000
vt 0.75000000 0.25000000
vt 0.75000000 0.26000000
vt 0.75000000 0.26000000
vt 0.75000000 0.27000000
vt 0.75000000 0.28000000
vt 0.75000000 0.29000000
vt 0.75000000 0.30000000
vt 0.75000000 0.30000000
vt 0.75000000 0.42500000
vt 0.75000000 0.42500000
vt 0.75000000 0.55000000
vt 0.75000000 0.62500000
vt 0.87500000 0.0000000e+0
vt 0.87500000 0.62500000
vt 1.00000000 0.0000000e+0
vt 1.00000000 0.62500000
vn 0.57735027 -0.57735027 -0.57735027
vn -0.57735027 -0.57735027 -0.57735027
vn 0.57735027 0.57735027 -0.57735027
vn -0.57735027 0.57735027 -0.57735027
vn 0.57735027 -0.57735027 0.57735027
vn -0.57735027 -0.57735027 0.57735027
vn 0.57735027 0.57735027 0.57735027
vn -0.57735027 0.57735027 0.57735027
vn 0.57735027 -0.57735027 -0.57735027
vn -0.57735027 -0.57735027 -0.57735027
vn 0.57735027 0.57735027 -0.57735027
vn -0.57735027 0.57735027 -0.57735027
vn 0.57735027 -0.57735027 0.57735027
vn -0.57735027 -0.57735027 0.57735027
vn 0.57735027 0.57735027 0.57735027
vn -0.57735027 0.57735027 0.57735027
vn 0.57735027 -0.57735027 -0.57735027
vn -0.57735027 -0.57735027 -0.57735027
vn 0.57735027 0.57735027 -0.57735027
vn -0.57735027 0.57735027 -0.57735027
vn 0.57735027 -0.57735027 0.57735027
vn -0.57735027 -0.57735027 0.57735027
vn 0.57735027 0.57735027 0.57735027
vn -0.57735027 0.57735027 0.57735027
g Cube1_Cube1_auv
usemtl Cube1_auv
s 1
f 1/44/1 5/29/5 2/42/2
f 2/24/2 3/21/3 1/20/1
f 2/42/2 5/29/5 6/27/6
f 2/22/2 8/38/8 4/23/4
f 3/13/3 5/10/5 1/12/1
f 3/28/3 8/41/8 7/43/7
f 4/25/4 3/21/3 2/24/2
f 4/26/4 8/41/8 3/28/3
f 5/18/5 8/16/8 6/14/6
f 6/37/6 8/38/8 2/22/2
f 7/11/7 5/10/5 3/13/3
f 7/19/7 8/16/8 5/18/5
f 9/47/9 13/45/13 10/46/10
f 10/23/10 11/9/11 9/8/9
f 10/46/10 13/45/13 14/30/14
f 10/23/10 16/39/16 12/24/12
f 11/17/11 13/12/13 9/15/9
f 11/47/11 16/48/16 15/49/15
f 12/24/12 11/9/11 10/23/10
f 12/46/12 16/48/16 11/47/11
f 13/22/13 16/8/16 14/7/14
f 14/38/14 16/39/16 10/23/10
f 15/13/15 13/12/13 11/17/11
f 15/23/15 16/8/16 13/22/13
f 17/31/17 21/2/21 18/30/18
f 18/39/18 19/25/19 17/24/17
f 18/30/18 21/2/21 22/1/22
f 18/6/18 24/37/24 20/7/20
f 19/35/19 21/5/21 17/33/17
f 19/4/19 24/32/24 23/34/23
f 20/40/20 19/25/19 18/39/18
f 20/3/20 24/32/24 19/4/19
f 21/20/21 24/19/24 22/18/22
f 22/36/22 24/37/24 18/6/18
f 23/6/23 21/5/21 19/35/19
f 23/21/23 24/19/24 21/20/21
