# Exported from Wings 3D 1.5.3
mtllib NROAD_15x15_straight.mtl
o Cube1
#16 vertices, 24 faces
v -7.50000000 0.0000000e+0 5.00000000
v -7.50000000 0.0000000e+0 7.50000000
v -7.50000000 0.20000000 5.00000000
v -7.50000000 0.20000000 7.50000000
v 7.50000000 0.0000000e+0 5.00000000
v 7.50000000 0.0000000e+0 7.50000000
v 7.50000000 0.20000000 5.00000000
v 7.50000000 0.20000000 7.50000000
v -7.50000000 0.0000000e+0 -7.50000000
v -7.50000000 0.0000000e+0 -5.00000000
v -7.50000000 0.20000000 -7.50000000
v -7.50000000 0.20000000 -5.00000000
v 7.50000000 0.0000000e+0 -7.50000000
v 7.50000000 0.0000000e+0 -5.00000000
v 7.50000000 0.20000000 -7.50000000
v 7.50000000 0.20000000 -5.00000000
vt 0.0000000e+0 1.2490009e-16
vt 0.0000000e+0 0.16666667
vt 0.0000000e+0 0.16666667
vt 0.0000000e+0 0.33333333
vt 0.0000000e+0 0.50000000
vt 0.0000000e+0 0.66666667
vt 0.0000000e+0 0.66666667
vt 0.0000000e+0 0.68000000
vt 0.0000000e+0 0.68000000
vt 0.0000000e+0 0.69333333
vt 0.0000000e+0 0.69333333
vt 0.0000000e+0 0.70666667
vt 0.0000000e+0 0.70666667
vt 0.0000000e+0 0.72000000
vt 0.0000000e+0 0.72000000
vt 0.0000000e+0 0.73333333
vt 0.16666667 0.72000000
vt 0.16666667 0.73333333
vt 0.16666667 0.72000000
vt 0.16666667 0.73333333
vt 0.33333333 0.72000000
vt 0.33333333 0.73333333
vt 0.33333333 0.72000000
vt 0.33333333 0.73333333
vt 0.50000000 0.72000000
vt 0.50000000 0.73333333
vt 0.66666667 0.72000000
vt 0.66666667 0.73333333
vt 1.00000000 0.0000000e+0
vt 1.00000000 0.16666667
vt 1.00000000 0.16666667
vt 1.00000000 0.33333333
vt 1.00000000 0.33333333
vt 1.00000000 0.50000000
vt 1.00000000 0.66666667
vt 1.00000000 0.68000000
vt 1.00000000 0.68000000
vt 1.00000000 0.69333333
vt 1.00000000 0.70666667
vt 1.00000000 0.70666667
vt 1.00000000 0.72000000
vn -0.57735027 -0.57735027 -0.57735027
vn -0.57735027 -0.57735027 0.57735027
vn -0.57735027 0.57735027 -0.57735027
vn -0.57735027 0.57735027 0.57735027
vn 0.57735027 -0.57735027 -0.57735027
vn 0.57735027 -0.57735027 0.57735027
vn 0.57735027 0.57735027 -0.57735027
vn 0.57735027 0.57735027 0.57735027
vn -0.57735027 -0.57735027 -0.57735027
vn -0.57735027 -0.57735027 0.57735027
vn -0.57735027 0.57735027 -0.57735027
vn -0.57735027 0.57735027 0.57735027
vn 0.57735027 -0.57735027 -0.57735027
vn 0.57735027 -0.57735027 0.57735027
vn 0.57735027 0.57735027 -0.57735027
vn 0.57735027 0.57735027 0.57735027
g Cube1_Cube1_auv
usemtl Cube1_auv
s 1
f 1/30/1 5/2/5 2/29/2
f 2/25/2 3/24/3 1/23/1
f 2/29/2 5/2/5 6/1/6
f 2/10/2 8/40/8 4/13/4
f 3/36/3 5/7/5 1/35/1
f 3/5/3 8/33/8 7/34/7
f 4/26/4 3/24/3 2/25/2
f 4/4/4 8/33/8 3/5/3
f 5/17/5 8/16/8 6/14/6
f 6/38/6 8/40/8 2/10/2
f 7/8/7 5/7/5 3/36/3
f 7/18/7 8/16/8 5/17/5
f 9/32/9 13/4/13 10/31/10
f 10/27/10 11/26/11 9/25/9
f 10/31/10 13/4/13 14/3/14
f 10/12/10 16/41/16 12/15/12
f 11/38/11 13/9/13 9/37/9
f 11/6/11 16/34/16 15/35/15
f 12/28/12 11/26/11 10/27/10
f 12/5/12 16/34/16 11/6/11
f 13/21/13 16/20/16 14/19/14
f 14/39/14 16/41/16 10/12/10
f 15/11/15 13/9/13 11/38/11
f 15/22/15 16/20/16 13/21/13
