# Exported from Wings 3D 1.5.3
mtllib NROAD_15x15_4_cross.mtl
o Cube2
#32 vertices, 48 faces
v 5.00000000 0.0000000e+0 5.00000000
v 5.00000000 0.0000000e+0 7.50000000
v 5.00000000 0.20000000 5.00000000
v 5.00000000 0.20000000 7.50000000
v 7.50000000 0.0000000e+0 5.00000000
v 7.50000000 0.0000000e+0 7.50000000
v 7.50000000 0.20000000 5.00000000
v 7.50000000 0.20000000 7.50000000
v -7.50000000 0.0000000e+0 -7.50000000
v -7.50000000 0.0000000e+0 -5.00000000
v -7.50000000 0.20000000 -7.50000000
v -7.50000000 0.20000000 -5.00000000
v -5.00000000 0.0000000e+0 -7.50000000
v -5.00000000 0.0000000e+0 -5.00000000
v -5.00000000 0.20000000 -7.50000000
v -5.00000000 0.20000000 -5.00000000
v -7.50000000 0.0000000e+0 5.00000000
v -7.50000000 0.0000000e+0 7.50000000
v -7.50000000 0.20000000 5.00000000
v -7.50000000 0.20000000 7.50000000
v -5.00000000 0.0000000e+0 5.00000000
v -5.00000000 0.0000000e+0 7.50000000
v -5.00000000 0.20000000 5.00000000
v -5.00000000 0.20000000 7.50000000
v 5.00000000 0.0000000e+0 -7.50000000
v 5.00000000 0.0000000e+0 -5.00000000
v 5.00000000 0.20000000 -7.50000000
v 5.00000000 0.20000000 -5.00000000
v 7.50000000 0.0000000e+0 -7.50000000
v 7.50000000 0.0000000e+0 -5.00000000
v 7.50000000 0.20000000 -7.50000000
v 7.50000000 0.20000000 -5.00000000
vt 0.0000000e+0 3.6429193e-17
vt 0.0000000e+0 2.4390244e-2
vt 0.0000000e+0 2.4390244e-2
vt 0.0000000e+0 4.8780488e-2
vt 0.0000000e+0 4.8780488e-2
vt 0.0000000e+0 7.3170732e-2
vt 0.0000000e+0 7.3170732e-2
vt 0.0000000e+0 9.7560976e-2
vt 0.0000000e+0 9.7560976e-2
vt 0.0000000e+0 0.12195122
vt 0.0000000e+0 0.12195122
vt 0.0000000e+0 0.14634146
vt 0.0000000e+0 0.17073171
vt 0.0000000e+0 0.19512195
vt 0.0000000e+0 0.19512195
vt 0.0000000e+0 0.21951220
vt 0.0000000e+0 0.24390244
vt 0.0000000e+0 0.26829268
vt 0.0000000e+0 0.29268293
vt 0.0000000e+0 0.31707317
vt 0.0000000e+0 0.34146341
vt 0.0000000e+0 0.36585366
vt 0.0000000e+0 0.39024390
vt 0.0000000e+0 0.39024390
vt 0.0000000e+0 0.69512195
vt 0.0000000e+0 0.69512195
vt 0.0000000e+0 1.00000000
vt 0.30487805 0.0000000e+0
vt 0.30487805 2.4390244e-2
vt 0.30487805 2.4390244e-2
vt 0.30487805 4.8780488e-2
vt 0.30487805 4.8780488e-2
vt 0.30487805 7.3170732e-2
vt 0.30487805 7.3170732e-2
vt 0.30487805 9.7560976e-2
vt 0.30487805 9.7560976e-2
vt 0.30487805 0.12195122
vt 0.30487805 0.12195122
vt 0.30487805 0.14634146
vt 0.30487805 0.17073171
vt 0.30487805 0.19512195
vt 0.30487805 0.19512195
vt 0.30487805 0.21951220
vt 0.30487805 0.24390244
vt 0.30487805 0.26829268
vt 0.30487805 0.29268293
vt 0.30487805 0.31707317
vt 0.30487805 0.34146341
vt 0.30487805 0.36585366
vt 0.30487805 0.39024390
vt 0.30487805 0.39024390
vt 0.30487805 0.69512195
vt 0.30487805 0.69512195
vt 0.30487805 1.00000000
vt 0.30487805 0.0000000e+0
vt 0.30487805 0.30487805
vt 0.30487805 0.39024390
vt 0.30487805 0.69512195
vt 0.30487805 0.69512195
vt 0.30487805 1.00000000
vt 0.60975610 0.0000000e+0
vt 0.60975610 0.30487805
vt 0.60975610 0.30487805
vt 0.60975610 0.39024390
vt 0.60975610 0.60975610
vt 0.60975610 0.69512195
vt 0.60975610 0.69512195
vt 0.60975610 1.00000000
vt 0.91463415 0.0000000e+0
vt 0.91463415 0.30487805
vt 0.91463415 0.30487805
vt 0.91463415 0.60975610
vt 0.91463415 0.69512195
vt 0.91463415 1.00000000
vn -0.57735027 -0.57735027 -0.57735027
vn -0.57735027 -0.57735027 0.57735027
vn -0.57735027 0.57735027 -0.57735027
vn -0.57735027 0.57735027 0.57735027
vn 0.57735027 -0.57735027 -0.57735027
vn 0.57735027 -0.57735027 0.57735027
vn 0.57735027 0.57735027 -0.57735027
vn 0.57735027 0.57735027 0.57735027
vn -0.57735027 -0.57735027 -0.57735027
vn -0.57735027 -0.57735027 0.57735027
vn -0.57735027 0.57735027 -0.57735027
vn -0.57735027 0.57735027 0.57735027
vn 0.57735027 -0.57735027 -0.57735027
vn 0.57735027 -0.57735027 0.57735027
vn 0.57735027 0.57735027 -0.57735027
vn 0.57735027 0.57735027 0.57735027
vn -0.57735027 -0.57735027 -0.57735027
vn -0.57735027 -0.57735027 0.57735027
vn -0.57735027 0.57735027 -0.57735027
vn -0.57735027 0.57735027 0.57735027
vn 0.57735027 -0.57735027 -0.57735027
vn 0.57735027 -0.57735027 0.57735027
vn 0.57735027 0.57735027 -0.57735027
vn 0.57735027 0.57735027 0.57735027
vn -0.57735027 -0.57735027 -0.57735027
vn -0.57735027 -0.57735027 0.57735027
vn -0.57735027 0.57735027 -0.57735027
vn -0.57735027 0.57735027 0.57735027
vn 0.57735027 -0.57735027 -0.57735027
vn 0.57735027 -0.57735027 0.57735027
vn 0.57735027 0.57735027 -0.57735027
vn 0.57735027 0.57735027 0.57735027
g Cube2_Cube2_auv
usemtl Cube2_auv
s 1
f 1/52/1 5/25/5 2/51/2
f 2/46/2 3/20/3 1/19/1
f 2/51/2 5/25/5 6/24/6
f 2/8/2 8/37/8 4/10/4
f 3/29/3 5/1/5 1/28/1
f 3/56/3 8/61/8 7/62/7
f 4/47/4 3/20/3 2/46/2
f 4/55/4 8/61/8 3/56/3
f 5/41/5 8/16/8 6/14/6
f 6/36/6 8/37/8 2/8/2
f 7/2/7 5/1/5 3/29/3
f 7/43/7 8/16/8 5/41/5
f 9/66/9 13/58/13 10/64/10
f 10/47/10 11/21/11 9/20/9
f 10/64/10 13/58/13 14/57/14
f 10/11/10 16/39/16 12/12/12
f 11/31/11 13/3/13 9/30/9
f 11/27/11 16/53/16 15/54/15
f 12/48/12 11/21/11 10/47/10
f 12/26/12 16/53/16 11/27/11
f 13/43/13 16/17/16 14/16/14
f 14/38/14 16/39/16 10/11/10
f 15/4/15 13/3/13 11/31/11
f 15/44/15 16/17/16 13/43/13
f 17/70/17 21/62/21 18/69/18
f 18/48/18 19/22/19 17/21/17
f 18/69/18 21/62/21 22/61/22
f 18/12/18 24/40/24 20/13/20
f 19/33/19 21/5/21 17/32/17
f 19/60/19 24/67/24 23/68/23
f 20/49/20 19/22/19 18/48/18
f 20/59/20 24/67/24 19/60/19
f 21/44/21 24/18/24 22/17/22
f 22/39/22 24/40/24 18/12/18
f 23/6/23 21/5/21 19/33/19
f 23/45/23 24/18/24 21/44/21
f 25/72/25 29/65/29 26/71/26
f 26/49/26 27/23/27 25/22/25
f 26/71/26 29/65/29 30/63/30
f 26/13/26 32/42/32 28/15/28
f 27/35/27 29/7/29 25/34/25
f 27/68/27 32/73/32 31/74/31
f 28/50/28 27/23/27 26/49/26
f 28/67/28 32/73/32 27/68/27
f 29/45/29 32/19/32 30/18/30
f 30/40/30 32/42/32 26/13/26
f 31/9/31 29/7/29 27/35/27
f 31/46/31 32/19/32 29/45/29
