# Exported from Wings 3D 1.5.3
mtllib postbox.mtl
o grid1
#54 vertices, 104 faces
v 0.24944421 0.27479041 -0.24979790
v 0.22248225 0.27479041 -0.24979790
v -0.22081489 0.27479041 -0.24979790
v -0.25055579 0.27479041 -0.24979790
v 0.24944421 0.27479041 -0.21323597
v 0.22248225 0.27479041 -0.21323597
v -0.22081489 0.27479041 -0.21323597
v -0.25055579 0.27479041 -0.21323597
v 0.24944421 0.27479041 0.21262966
v 0.22248225 0.27479041 0.21262966
v -0.22081489 0.27479041 0.21262966
v -0.25055579 0.27479041 0.21262966
v 0.24944421 0.27479041 0.25020210
v 0.22248225 0.27479041 0.25020210
v -0.22081489 0.27479041 0.25020210
v -0.25055579 0.27479041 0.25020210
v 0.24944421 0.87906236 -0.24979790
v -0.25055579 0.87906236 -0.24979790
v 0.24944421 0.87906236 0.25020210
v -0.25055579 0.87906236 0.25020210
v -0.25055579 -4.4919762e-4 0.21262966
v -0.22081489 -4.4919762e-4 0.21262966
v -0.22081489 -4.4919762e-4 0.25020210
v -0.25055579 -4.4919762e-4 0.25020210
v -0.25055579 -4.4919762e-4 -0.24979790
v -0.22081489 -4.4919762e-4 -0.24979790
v -0.22081489 -4.4919762e-4 -0.21323597
v -0.25055579 -4.4919762e-4 -0.21323597
v 0.22248225 -4.4919762e-4 0.21262966
v 0.24944421 -4.4919762e-4 0.21262966
v 0.24944421 -4.4919762e-4 0.25020210
v 0.22248225 -4.4919762e-4 0.25020210
v 0.22248225 -4.4919762e-4 -0.24979790
v 0.24944421 -4.4919762e-4 -0.24979790
v 0.24944421 -4.4919762e-4 -0.21323597
v 0.22248225 -4.4919762e-4 -0.21323597
v 0.24944421 0.94958413 -0.19979790
v 0.24944421 1.00973505 -0.14979790
v 0.24944421 1.04914427 -9.9797896e-2
v 0.24944421 1.07956542 -4.9797896e-2
v 0.24944421 1.08717071 2.0210445e-4
v 0.24944421 1.07956542 5.0202104e-2
v 0.24944421 1.04914427 0.10020210
v 0.24944421 1.00973505 0.15020210
v 0.24944421 0.94958413 0.20020210
v -0.25055579 0.94958413 -0.19979790
v -0.25055579 1.00973505 -0.14979790
v -0.25055579 1.04914427 -9.9797896e-2
v -0.25055579 1.07956542 -4.9797896e-2
v -0.25055579 1.08717071 2.0210445e-4
v -0.25055579 1.07956542 5.0202104e-2
v -0.25055579 1.04914427 0.10020210
v -0.25055579 1.00973505 0.15020210
v -0.25055579 0.94958413 0.20020210
vt 0.0000000e+0 0.0000000e+0
vt 0.0000000e+0 0.13761980
vt 0.0000000e+0 0.43975578
vt 0.0000000e+0 0.56259618
vt 1.6653345e-16 0.77552899
vt 1.3480983e-2 0.54380995
vt 1.3480983e-2 0.56259618
vt 1.3480983e-2 0.77552899
vt 1.3480983e-2 0.79380995
vt 1.8786224e-2 0.0000000e+0
vt 1.8786224e-2 0.13761980
vt 2.5000000e-2 0.47501666
vt 5.0000000e-2 0.50509212
vt 7.5000000e-2 0.52479673
vt 0.10000000 0.54000731
vt 0.12500000 0.54380995
vt 0.15000000 0.54000731
vt 0.17500000 0.52479673
vt 0.20000000 0.50509212
vt 0.22500000 0.47501666
vt 0.23171904 0.0000000e+0
vt 0.23171904 0.13761980
vt 0.23512955 0.54380995
vt 0.23512955 0.56259618
vt 0.23512955 0.77552899
vt 0.23512955 0.79380995
vt 0.25000000 0.0000000e+0
vt 0.25000000 0.13761980
vt 0.25000000 0.43975578
vt 0.25000000 0.43975578
vt 0.25000000 0.56259618
vt 0.25000000 0.59380995
vt 0.25000000 0.61880995
vt 0.25000000 0.64380995
vt 0.25000000 0.66880995
vt 0.25000000 0.77552899
vt 0.25000000 0.54380995
vt 0.25000000 0.56880995
vt 0.25000000 0.69380995
vt 0.26828096 0.0000000e+0
vt 0.26828096 0.13761980
vt 0.27500000 0.47501666
vt 0.30000000 0.50509212
vt 0.32500000 0.52479673
vt 0.35000000 0.54000731
vt 0.37500000 0.54380995
vt 0.40000000 0.54000731
vt 0.42500000 0.52479673
vt 0.45000000 0.50509212
vt 0.47500000 0.47501666
vt 0.48121378 0.0000000e+0
vt 0.48121378 0.13761980
vt 0.50000000 0.0000000e+0
vt 0.50000000 0.13761980
vt 0.50000000 0.43605717
vt 0.50000000 0.43975578
vt 0.50000000 0.47425708
vt 0.50000000 0.50731517
vt 0.50000000 0.50731517
vt 0.50000000 0.52610140
vt 0.50000000 0.0000000e+0
vt 0.50000000 0.13646234
vt 0.50000000 0.54380995
vt 0.50000000 0.54380995
vt 0.50000000 0.56880995
vt 0.50000000 0.59380995
vt 0.50000000 0.61880995
vt 0.50000000 0.64380995
vt 0.50000000 0.66880995
vt 0.50000000 0.68142976
vt 0.50000000 0.69380995
vt 0.51348098 1.6653345e-16
vt 0.51348098 0.13646234
vt 0.51348098 0.50731517
vt 0.51348098 0.52610140
vt 0.51348098 0.54380995
vt 0.51348098 0.54380995
vt 0.51348098 0.68142976
vt 0.51348098 0.68142976
vt 0.52835143 0.50731517
vt 0.52835143 0.52559614
vt 0.52835143 0.52610140
vt 0.52835143 0.54380995
vt 0.52835143 0.68142976
vt 0.52835143 0.54380995
vt 0.52835143 0.68142976
vt 0.54183242 0.54380995
vt 0.54183242 0.68142976
vt 0.54183242 0.54380995
vt 0.54183242 0.68142976
vt 0.54322188 0.50731517
vt 0.54322188 0.52559614
vt 0.55670287 0.50731517
vt 0.55670287 0.52559614
vt 0.55670287 0.54380995
vt 0.55670287 0.68142976
vt 0.55670287 0.68142976
vt 0.57548909 0.54380995
vt 0.57548909 0.68142976
vt 0.59427532 0.54380995
vt 0.59427532 0.68142976
vt 0.61255628 0.54380995
vt 0.61255628 0.68142976
vt 0.63083724 0.54380995
vt 0.63083724 0.68142976
vt 0.73512955 3.8857806e-16
vt 0.73512955 0.13646234
vt 0.75000000 4.9960036e-16
vt 0.75000000 5.5511151e-16
vt 0.75000000 0.13646234
vt 0.75000000 0.13646234
vt 0.75000000 0.43605717
vt 0.75000000 0.43605717
vt 0.75000000 0.47425708
vt 0.75000000 0.47425708
vt 0.75000000 0.50731517
vt 0.75000000 0.50731517
vt 0.76487045 3.3306691e-16
vt 0.76487045 0.13646234
vt 0.98651902 1.6653345e-16
vt 0.98651902 0.13646234
vt 1.00000000 0.0000000e+0
vt 1.00000000 0.13646234
vt 1.00000000 0.43605717
vt 1.00000000 0.47425708
vt 1.00000000 0.50731517
vn 0.70710678 0.0000000e+0 -0.70710678
vn -0.30151134 -0.30151134 -0.90453403
vn 0.34815531 -0.34815531 -0.87038828
vn -0.70710678 0.0000000e+0 -0.70710678
vn 0.90453403 -0.30151134 0.30151134
vn -0.30151134 -0.90453403 0.30151134
vn 0.30151134 -0.90453403 0.30151134
vn -0.81649658 -0.40824829 0.40824829
vn 0.87038828 -0.34815531 -0.34815531
vn -0.30151134 -0.90453403 -0.30151134
vn 0.30151134 -0.90453403 -0.30151134
vn -0.94280904 -0.23570226 -0.23570226
vn 0.70710678 0.0000000e+0 0.70710678
vn -0.40824829 -0.40824829 0.81649658
vn 0.23570226 -0.23570226 0.94280904
vn -0.70710678 0.0000000e+0 0.70710678
vn 0.64225061 0.18573244 -0.74365155
vn -0.81205812 0.11741953 -0.57164172
vn 0.64225061 0.18573244 0.74365155
vn -0.81205812 0.11741953 0.57164172
vn -0.57735027 -0.57735027 -0.57735027
vn 0.57735027 -0.57735027 -0.57735027
vn 0.57735027 -0.57735027 0.57735027
vn -0.57735027 -0.57735027 0.57735027
vn -0.57735027 -0.57735027 -0.57735027
vn 0.57735027 -0.57735027 -0.57735027
vn 0.57735027 -0.57735027 0.57735027
vn -0.57735027 -0.57735027 0.57735027
vn -0.57735027 -0.57735027 -0.57735027
vn 0.57735027 -0.57735027 -0.57735027
vn 0.57735027 -0.57735027 0.57735027
vn -0.57735027 -0.57735027 0.57735027
vn -0.57735027 -0.57735027 -0.57735027
vn 0.57735027 -0.57735027 -0.57735027
vn 0.57735027 -0.57735027 0.57735027
vn -0.57735027 -0.57735027 0.57735027
vn 0.83223883 0.33778215 -0.43963820
vn 0.60211615 0.57185377 -0.55717090
vn 0.89475384 0.36677680 -0.25473583
vn 0.24706804 0.91065862 -0.33114688
vn 0.83496013 0.55031045 0.0000000e+0
vn 0.24706804 0.91065862 0.33114688
vn 0.83251792 0.45502014 0.31602307
vn 0.60211615 0.57185377 0.55717090
vn 0.83223883 0.33778215 0.43963820
vn -0.60028289 0.48727562 -0.63421047
vn -0.83345728 0.39578385 -0.38562173
vn -0.70775291 0.58024305 -0.40299357
vn -0.45428744 0.83722033 -0.30444218
vn -0.60438940 0.79668906 0.0000000e+0
vn -0.45428744 0.83722033 0.30444218
vn -0.60070204 0.65663818 0.45605193
vn -0.83345728 0.39578385 0.38562173
vn -0.60028289 0.48727562 0.63421047
g grid1_grid1_auv
usemtl grid1_auv
s 1
f 1/28/1 17/30/17 5/22/5
f 1/62/1 33/72/33 2/73/2
f 2/9/2 6/8/6 3/26/3
f 2/73/2 17/55/17 1/62/1
f 2/101/2 33/100/33 6/103/6
f 3/26/3 6/8/6 7/25/7
f 3/107/3 17/55/17 2/73/2
f 3/107/3 25/109/25 4/111/4
f 4/111/4 18/113/18 3/107/3
f 4/28/4 25/27/25 8/41/8
f 5/5/5 9/4/9 6/8/6
f 5/22/5 17/30/17 9/11/9
f 5/22/5 35/21/35 1/28/1
f 6/8/6 9/4/9 10/7/10
f 6/8/6 11/24/11 7/25/7
f 6/86/6 35/89/35 5/90/5
f 7/25/7 11/24/11 8/36/8
f 7/103/7 27/102/27 3/105/3
f 8/36/8 11/24/11 12/31/12
f 8/41/8 18/29/18 4/28/4
f 8/88/8 27/95/27 7/96/7
f 9/11/9 19/3/19 13/2/13
f 9/70/9 29/77/29 10/79/10
f 10/7/10 11/24/11 6/8/6
f 10/7/10 14/6/14 11/24/11
f 10/97/10 29/95/29 14/99/14
f 11/24/11 14/6/14 15/23/15
f 11/78/11 21/83/21 12/84/12
f 12/52/12 18/29/18 8/41/8
f 12/52/12 21/51/21 16/54/16
f 13/123/13 19/124/19 14/121/14
f 13/2/13 31/1/31 9/11/9
f 14/121/14 19/124/19 15/119/15
f 14/121/14 31/122/31 13/123/13
f 15/119/15 20/112/20 16/110/16
f 15/99/15 23/98/23 11/101/11
f 16/54/16 20/56/20 12/52/12
f 16/110/16 23/118/23 15/119/15
f 17/55/17 3/107/3 18/113/18
f 17/30/17 19/3/19 9/11/9
f 17/55/17 46/115/46 37/57/37
f 18/29/18 12/52/12 20/56/20
f 18/29/18 20/56/20 46/42/46
f 18/113/18 46/115/46 17/55/17
f 19/3/19 37/20/37 45/12/45
f 19/124/19 54/114/54 20/112/20
f 20/112/20 15/119/15 19/124/19
f 21/83/21 11/78/11 22/76/22
f 22/100/22 11/101/11 23/98/23
f 22/75/22 23/74/23 21/82/21
f 23/118/23 16/110/16 24/108/24
f 24/53/24 16/54/16 21/51/21
f 24/80/24 21/82/21 23/74/23
f 25/109/25 3/107/3 26/106/26
f 26/104/26 3/105/3 27/102/27
f 26/81/26 27/80/27 25/92/25
f 27/95/27 8/88/8 28/87/28
f 28/40/28 8/41/8 25/27/25
f 28/91/28 25/92/25 27/80/27
f 29/77/29 9/70/9 30/63/30
f 30/10/30 9/11/9 31/1/31
f 30/60/30 31/59/31 29/75/29
f 31/122/31 14/121/14 32/120/32
f 32/98/32 14/99/14 29/95/29
f 32/74/32 29/75/29 31/59/31
f 33/72/33 1/62/1 34/61/34
f 34/27/34 1/28/1 35/21/35
f 34/92/34 35/91/35 33/94/33
f 35/89/35 6/86/6 36/85/36
f 36/102/36 6/103/6 33/100/33
f 36/93/36 33/94/33 35/91/35
f 37/20/37 19/3/19 17/30/17
f 37/57/37 46/115/46 38/58/38
f 38/19/38 45/12/45 37/20/37
f 38/71/38 48/35/48 39/69/39
f 39/18/39 41/16/41 43/14/43
f 39/18/39 44/13/44 38/19/38
f 39/69/39 48/35/48 40/68/40
f 40/17/40 41/16/41 39/18/39
f 40/68/40 50/33/50 41/67/41
f 41/67/41 50/33/50 42/66/42
f 42/15/42 43/14/43 41/16/41
f 42/66/42 52/38/52 43/65/43
f 43/65/43 52/38/52 44/64/44
f 44/13/44 39/18/39 43/14/43
f 44/126/44 54/114/54 45/125/45
f 45/12/45 38/19/38 44/13/44
f 45/125/45 54/114/54 19/124/19
f 46/42/46 54/50/54 47/43/47
f 47/117/47 38/58/38 46/115/46
f 47/43/47 53/49/53 48/44/48
f 48/35/48 38/71/38 47/39/47
f 48/44/48 50/46/50 49/45/49
f 49/34/49 40/68/40 48/35/48
f 50/33/50 40/68/40 49/34/49
f 50/46/50 48/44/48 52/48/52
f 50/46/50 52/48/52 51/47/51
f 51/32/51 42/66/42 50/33/50
f 52/38/52 42/66/42 51/32/51
f 52/48/52 48/44/48 53/49/53
f 53/37/53 44/64/44 52/38/52
f 53/49/53 47/43/47 54/50/54
f 54/114/54 44/126/44 53/116/53
f 54/50/54 46/42/46 20/56/20
