# Exported from Wings 3D 1.5.3
mtllib postbox_bounding.mtl
o Cube2
#8 vertices, 12 faces
v -0.25000000 -1.8548774e-2 -0.25000000
v -0.25000000 -1.8548774e-2 0.25000000
v -0.25000000 1.08956830 -0.25000000
v -0.25000000 1.08956830 0.25000000
v 0.25000000 -1.8548774e-2 -0.25000000
v 0.25000000 -1.8548774e-2 0.25000000
v 0.25000000 1.08956830 -0.25000000
v 0.25000000 1.08956830 0.25000000
vn -0.57735027 -0.57735027 -0.57735027
vn -0.57735027 -0.57735027 0.57735027
vn -0.57735027 0.57735027 -0.57735027
vn -0.57735027 0.57735027 0.57735027
vn 0.57735027 -0.57735027 -0.57735027
vn 0.57735027 -0.57735027 0.57735027
vn 0.57735027 0.57735027 -0.57735027
vn 0.57735027 0.57735027 0.57735027
g Cube2_default
usemtl default
s 1
f 1//1 5//5 2//2
f 2//2 3//3 1//1
f 2//2 5//5 6//6
f 2//2 8//8 4//4
f 3//3 5//5 1//1
f 3//3 8//8 7//7
f 4//4 3//3 2//2
f 4//4 8//8 3//3
f 5//5 8//8 6//6
f 6//6 8//8 2//2
f 7//7 5//5 3//3
f 7//7 8//8 5//5
