# Exported from Wings 3D 1.5.3
mtllib ROAD_15x15_4_cross.mtl
o grid1
#36 vertices, 68 faces
v -7.50000000 0.0000000e+0 -7.50000000
v -5.00000000 2.7755576e-17 -7.50000000
v 5.00000000 2.7755576e-17 -7.50000000
v 7.50000000 0.0000000e+0 -7.50000000
v -7.50000000 2.7755576e-17 -5.00000000
v -5.00000000 2.7755576e-17 -5.00000000
v 5.00000000 2.7755576e-17 -5.00000000
v 7.50000000 2.7755576e-17 -5.00000000
v -7.50000000 2.7755576e-17 5.00000000
v -5.00000000 2.7755576e-17 5.00000000
v 5.00000000 2.7755576e-17 5.00000000
v 7.50000000 2.7755576e-17 5.00000000
v -7.50000000 0.0000000e+0 7.50000000
v -5.00000000 2.7755576e-17 7.50000000
v 5.00000000 2.7755576e-17 7.50000000
v 7.50000000 0.0000000e+0 7.50000000
v -7.50000000 -0.20000000 -7.50000000
v 7.50000000 -0.20000000 -7.50000000
v -7.50000000 -0.20000000 7.50000000
v 7.50000000 -0.20000000 7.50000000
v 7.50000000 1.0000000e-1 5.00000000
v 5.00000000 1.0000000e-1 5.00000000
v 5.00000000 1.0000000e-1 7.50000000
v 7.50000000 1.0000000e-1 7.50000000
v 7.50000000 1.0000000e-1 -7.50000000
v 5.00000000 1.0000000e-1 -7.50000000
v 5.00000000 1.0000000e-1 -5.00000000
v 7.50000000 1.0000000e-1 -5.00000000
v -5.00000000 1.0000000e-1 5.00000000
v -7.50000000 1.0000000e-1 5.00000000
v -7.50000000 1.0000000e-1 7.50000000
v -5.00000000 1.0000000e-1 7.50000000
v -5.00000000 1.0000000e-1 -7.50000000
v -7.50000000 1.0000000e-1 -7.50000000
v -7.50000000 1.0000000e-1 -5.00000000
v -5.00000000 1.0000000e-1 -5.00000000
vt 0.0000000e+0 1.0928758e-16
vt 0.0000000e+0 1.1428571e-2
vt 0.0000000e+0 1.7142857e-2
vt 0.0000000e+0 1.7142857e-2
vt 0.0000000e+0 2.8571429e-2
vt 0.0000000e+0 3.4285714e-2
vt 0.0000000e+0 4.5714286e-2
vt 0.0000000e+0 5.1428571e-2
vt 0.0000000e+0 6.2857143e-2
vt 0.0000000e+0 6.8571429e-2
vt 0.0000000e+0 0.21142857
vt 0.0000000e+0 0.78285714
vt 0.0000000e+0 0.92571429
vt 0.0000000e+0 0.93142857
vt 0.0000000e+0 0.93714286
vt 0.14285714 1.1428571e-2
vt 0.14285714 1.7142857e-2
vt 0.14285714 2.8571429e-2
vt 0.14285714 3.4285714e-2
vt 0.14285714 4.5714286e-2
vt 0.14285714 5.1428571e-2
vt 0.14285714 6.2857143e-2
vt 0.14285714 6.8571429e-2
vt 0.14285714 6.8571429e-2
vt 0.14285714 0.21142857
vt 0.14285714 0.78285714
vt 0.14285714 0.92571429
vt 0.14285714 0.93142857
vt 0.14285714 0.93714286
vt 0.28571429 0.92571429
vt 0.28571429 0.93142857
vt 0.28571429 0.93714286
vt 0.42857143 0.92571429
vt 0.42857143 0.93142857
vt 0.57142857 0.92571429
vt 0.57142857 0.93142857
vt 0.71428571 1.1428571e-2
vt 0.71428571 1.7142857e-2
vt 0.71428571 2.8571429e-2
vt 0.71428571 3.4285714e-2
vt 0.71428571 4.5714286e-2
vt 0.71428571 5.1428571e-2
vt 0.71428571 6.2857143e-2
vt 0.71428571 6.8571429e-2
vt 0.71428571 6.8571429e-2
vt 0.71428571 0.21142857
vt 0.71428571 0.78285714
vt 0.71428571 0.92571429
vt 0.71428571 0.93142857
vt 0.71428571 0.92571429
vt 0.71428571 0.93142857
vt 0.85714286 0.0000000e+0
vt 0.85714286 1.1428571e-2
vt 0.85714286 1.7142857e-2
vt 0.85714286 1.7142857e-2
vt 0.85714286 2.8571429e-2
vt 0.85714286 3.4285714e-2
vt 0.85714286 4.5714286e-2
vt 0.85714286 5.1428571e-2
vt 0.85714286 6.2857143e-2
vt 0.85714286 6.8571429e-2
vt 0.85714286 0.14285714
vt 0.85714286 0.21142857
vt 0.85714286 0.28571429
vt 0.85714286 0.42857143
vt 0.85714286 0.57142857
vt 0.85714286 0.78285714
vt 0.85714286 0.92571429
vt 0.85714286 0.93142857
vt 1.00000000 0.0000000e+0
vt 1.00000000 0.14285714
vt 1.00000000 0.28571429
vt 1.00000000 0.42857143
vt 1.00000000 0.57142857
vn -0.70710678 0.0000000e+0 -0.70710678
vn 0.23570226 0.23570226 -0.94280904
vn -0.40824829 0.40824829 -0.81649658
vn 0.70710678 0.0000000e+0 -0.70710678
vn -0.94280904 0.23570226 0.23570226
vn 0.30151134 0.90453403 0.30151134
vn -0.30151134 0.90453403 0.30151134
vn 0.87038828 0.34815531 0.34815531
vn -0.81649658 0.40824829 -0.40824829
vn 0.30151134 0.90453403 -0.30151134
vn -0.30151134 0.90453403 -0.30151134
vn 0.90453403 0.30151134 -0.30151134
vn -0.70710678 0.0000000e+0 0.70710678
vn 0.40824829 0.40824829 0.81649658
vn -0.23570226 0.23570226 0.94280904
vn 0.70710678 0.0000000e+0 0.70710678
vn -0.57735027 -0.57735027 -0.57735027
vn 0.53452248 -0.26726124 -0.80178373
vn -0.68824720 -0.22941573 0.68824720
vn 0.72760688 -0.48507125 0.48507125
vn 0.57735027 0.57735027 -0.57735027
vn -0.57735027 0.57735027 -0.57735027
vn -0.57735027 0.57735027 0.57735027
vn 0.57735027 0.57735027 0.57735027
vn 0.57735027 0.57735027 -0.57735027
vn -0.57735027 0.57735027 -0.57735027
vn -0.57735027 0.57735027 0.57735027
vn 0.57735027 0.57735027 0.57735027
vn 0.57735027 0.57735027 -0.57735027
vn -0.57735027 0.57735027 -0.57735027
vn -0.57735027 0.57735027 0.57735027
vn 0.57735027 0.57735027 0.57735027
vn 0.57735027 0.57735027 -0.57735027
vn -0.57735027 0.57735027 -0.57735027
vn -0.57735027 0.57735027 0.57735027
vn 0.57735027 0.57735027 0.57735027
g grid1_default
usemtl default
s 1
f 17//17 20//20 19//19
f 18//18 20//20 17//17
g grid1_grid1_auv
usemtl grid1_auv
s 1
f 1/9/1 17/8/17 5/22/5
f 1/53/1 33/38/33 2/37/2
f 2/27/2 6/26/6 3/48/3
f 2/37/2 17/52/17 1/53/1
f 2/35/2 33/36/33 6/33/6
f 3/48/3 6/26/6 7/47/7
f 3/16/3 18/1/18 2/37/2
f 3/16/3 25/4/25 4/2/4
f 4/2/4 18/1/18 3/16/3
f 4/56/4 25/57/25 8/39/8
f 5/12/5 9/11/9 6/26/6
f 5/22/5 19/59/19 9/43/9
f 5/22/5 35/23/35 1/9/1
f 6/26/6 9/11/9 10/25/10
f 6/26/6 11/46/11 7/47/7
f 6/33/6 35/31/35 5/30/5
f 7/47/7 11/46/11 8/67/8
f 7/31/7 27/32/27 3/28/3
f 8/67/8 11/46/11 12/63/12
f 8/39/8 18/55/18 4/56/4
f 8/68/8 27/51/27 7/50/7
f 9/43/9 19/59/19 13/60/13
f 9/30/9 29/28/29 10/27/10
f 10/25/10 11/46/11 6/26/6
f 10/25/10 14/24/14 11/46/11
f 10/28/10 29/29/29 14/14/14
f 11/46/11 14/24/14 15/45/15
f 11/27/11 21/14/21 12/13/12
f 12/18/12 20/3/20 8/39/8
f 12/18/12 21/19/21 16/5/16
f 13/7/13 19/6/19 14/20/14
f 13/60/13 31/61/31 9/43/9
f 14/20/14 19/6/19 15/41/15
f 14/20/14 31/8/31 13/7/13
f 15/41/15 20/57/20 16/58/16
f 15/48/15 23/49/23 11/35/11
f 16/5/16 20/3/20 12/18/12
f 16/58/16 23/42/23 15/41/15
f 17/52/17 2/37/2 18/1/18
f 18/55/18 8/39/8 20/3/20
f 19/59/19 5/22/5 17/8/17
f 20/57/20 15/41/15 19/6/19
f 21/14/21 11/27/11 22/28/22
f 22/36/22 11/35/11 23/49/23
f 22/66/22 23/65/23 21/74/21
f 23/42/23 16/58/16 24/59/24
f 24/6/24 16/5/16 21/19/21
f 24/73/24 21/74/21 23/65/23
f 25/4/25 3/16/3 26/17/26
f 26/29/26 3/28/3 27/32/27
f 26/64/26 27/62/27 25/72/25
f 27/51/27 8/68/8 28/69/28
f 28/40/28 8/39/8 25/57/25
f 28/71/28 25/72/25 27/62/27
f 29/28/29 9/30/9 30/31/30
f 30/44/30 9/43/9 31/61/31
f 30/62/30 31/52/31 29/71/29
f 31/8/31 14/20/14 32/21/32
f 32/15/32 14/14/14 29/29/29
f 32/70/32 29/71/29 31/52/31
f 33/38/33 1/53/1 34/54/34
f 34/10/34 1/9/1 35/23/35
f 34/65/34 35/64/35 33/73/33
f 35/31/35 6/33/6 36/34/36
f 36/34/36 6/33/6 33/36/33
f 36/72/36 33/73/33 35/64/35
