# Exported from Wings 3D 1.5.3
mtllib ROAD_15x15_turn.mtl
o grid1
#36 vertices, 68 faces
v -7.50000000 0.0000000e+0 -7.50000000
v -5.00000000 0.0000000e+0 -7.50000000
v 5.00000000 0.0000000e+0 -7.50000000
v 7.50000000 0.0000000e+0 -7.50000000
v -7.50000000 0.0000000e+0 -5.00000000
v -5.00000000 -2.7755576e-17 -5.00000000
v 5.00000000 -2.7755576e-17 -5.00000000
v 7.50000000 -2.7755576e-17 -5.00000000
v -7.50000000 0.0000000e+0 5.00000000
v -5.00000000 -2.7755576e-17 5.00000000
v 5.00000000 -2.7755576e-17 5.00000000
v 7.50000000 -2.7755576e-17 5.00000000
v -7.50000000 0.0000000e+0 7.50000000
v -5.00000000 -2.7755576e-17 7.50000000
v 5.00000000 -2.7755576e-17 7.50000000
v 7.50000000 0.0000000e+0 7.50000000
v -7.50000000 -0.20000000 -7.50000000
v 7.50000000 -0.20000000 -7.50000000
v -7.50000000 -0.20000000 7.50000000
v 7.50000000 -0.20000000 7.50000000
v 7.50000000 1.0000000e-1 5.00000000
v 5.00000000 1.0000000e-1 5.00000000
v 5.00000000 1.0000000e-1 7.50000000
v 7.50000000 1.0000000e-1 7.50000000
v -5.00000000 1.0000000e-1 -7.50000000
v 5.00000000 1.0000000e-1 -7.50000000
v -7.50000000 1.0000000e-1 -5.00000000
v -5.00000000 1.0000000e-1 -5.00000000
v 5.00000000 1.0000000e-1 -5.00000000
v -7.50000000 1.0000000e-1 5.00000000
v -5.00000000 1.0000000e-1 5.00000000
v -7.50000000 1.0000000e-1 7.50000000
v -5.00000000 1.0000000e-1 7.50000000
v 7.50000000 1.0000000e-1 -5.00000000
v 7.50000000 1.0000000e-1 -7.50000000
v -7.50000000 1.0000000e-1 -7.50000000
vt 0.0000000e+0 6.5919492e-17
vt 0.0000000e+0 7.2727273e-3
vt 0.0000000e+0 1.0909091e-2
vt 0.0000000e+0 1.8181818e-2
vt 0.0000000e+0 2.1818182e-2
vt 0.0000000e+0 2.9090909e-2
vt 0.0000000e+0 3.2727273e-2
vt 0.0000000e+0 4.0000000e-2
vt 0.0000000e+0 4.3636364e-2
vt 0.0000000e+0 4.3636364e-2
vt 0.0000000e+0 0.13454545
vt 0.0000000e+0 0.49818182
vt 0.0000000e+0 0.58909091
vt 0.0000000e+0 0.58909091
vt 0.0000000e+0 0.59272727
vt 0.0000000e+0 0.59272727
vt 0.0000000e+0 0.59636364
vt 9.0909091e-2 7.2727273e-3
vt 9.0909091e-2 1.0909091e-2
vt 9.0909091e-2 1.8181818e-2
vt 9.0909091e-2 2.1818182e-2
vt 9.0909091e-2 2.9090909e-2
vt 9.0909091e-2 3.2727273e-2
vt 9.0909091e-2 4.0000000e-2
vt 9.0909091e-2 4.3636364e-2
vt 9.0909091e-2 4.3636364e-2
vt 9.0909091e-2 0.13454545
vt 9.0909091e-2 0.49818182
vt 9.0909091e-2 0.58909091
vt 9.0909091e-2 0.59272727
vt 9.0909091e-2 0.59636364
vt 0.36363636 0.58909091
vt 0.36363636 0.59272727
vt 0.45454545 7.2727273e-3
vt 0.45454545 1.0909091e-2
vt 0.45454545 1.8181818e-2
vt 0.45454545 2.1818182e-2
vt 0.45454545 2.9090909e-2
vt 0.45454545 3.2727273e-2
vt 0.45454545 4.0000000e-2
vt 0.45454545 4.3636364e-2
vt 0.45454545 0.49818182
vt 0.45454545 0.58909091
vt 0.45454545 0.58909091
vt 0.45454545 0.59272727
vt 0.45454545 0.59272727
vt 0.45454545 0.59636364
vt 0.54545455 0.0000000e+0
vt 0.54545455 7.2727273e-3
vt 0.54545455 1.0909091e-2
vt 0.54545455 1.0909091e-2
vt 0.54545455 1.8181818e-2
vt 0.54545455 2.1818182e-2
vt 0.54545455 2.9090909e-2
vt 0.54545455 3.2727273e-2
vt 0.54545455 4.0000000e-2
vt 0.54545455 4.3636364e-2
vt 0.54545455 9.0909091e-2
vt 0.54545455 0.45454545
vt 0.54545455 0.45818182
vt 0.54545455 0.49818182
vt 0.54545455 0.58909091
vt 0.54545455 0.58909091
vt 0.54545455 0.59272727
vt 0.63636364 0.45454545
vt 0.63636364 0.45818182
vt 0.63636364 0.45454545
vt 0.63636364 0.54545455
vt 0.72727273 0.45454545
vt 0.72727273 0.54545455
vt 0.90909091 0.0000000e+0
vt 0.90909091 9.0909091e-2
vt 0.90909091 0.45454545
vt 1.00000000 9.0909091e-2
vt 1.00000000 0.45454545
vn -0.70710678 0.0000000e+0 -0.70710678
vn 0.0000000e+0 0.0000000e+0 -1.00000000
vn 0.0000000e+0 0.0000000e+0 -1.00000000
vn 0.70710678 0.0000000e+0 -0.70710678
vn -1.00000000 0.0000000e+0 0.0000000e+0
vn 0.57735027 0.57735027 0.57735027
vn 0.0000000e+0 0.70710678 0.70710678
vn 0.94280904 0.23570226 0.23570226
vn -1.00000000 0.0000000e+0 0.0000000e+0
vn 0.70710678 0.70710678 0.0000000e+0
vn -0.30151134 0.90453403 -0.30151134
vn 0.81649658 0.40824829 -0.40824829
vn -0.70710678 0.0000000e+0 0.70710678
vn 0.30151134 0.30151134 0.90453403
vn -0.34815531 0.34815531 0.87038828
vn 0.70710678 0.0000000e+0 0.70710678
vn -0.57735027 -0.57735027 -0.57735027
vn 0.53452248 -0.26726124 -0.80178373
vn -0.68824720 -0.22941573 0.68824720
vn 0.72760688 -0.48507125 0.48507125
vn 0.57735027 0.57735027 -0.57735027
vn -0.57735027 0.57735027 -0.57735027
vn -0.57735027 0.57735027 0.57735027
vn 0.57735027 0.57735027 0.57735027
vn 0.0000000e+0 0.70710678 -0.70710678
vn 0.0000000e+0 0.70710678 -0.70710678
vn -0.70710678 0.70710678 0.0000000e+0
vn 0.30151134 0.90453403 0.30151134
vn 0.0000000e+0 0.70710678 0.70710678
vn -0.70710678 0.70710678 0.0000000e+0
vn 0.70710678 0.70710678 0.0000000e+0
vn -0.57735027 0.57735027 0.57735027
vn 0.57735027 0.57735027 0.57735027
vn 0.57735027 0.57735027 0.57735027
vn 0.57735027 0.57735027 -0.57735027
vn -0.57735027 0.57735027 -0.57735027
g grid1_default
usemtl default
s 1
f 17//17 20//20 19//19
f 18//18 20//20 17//17
g grid1_grid1_auv
usemtl grid1_auv
s 1
f 1/8/1 17/7/17 5/24/5
f 1/49/1 36/50/36 2/34/2
f 2/34/2 17/48/17 1/49/1
f 2/34/2 26/19/26 3/18/3
f 2/34/2 36/50/36 25/35/25
f 3/18/3 18/1/18 2/34/2
f 3/18/3 26/19/26 4/2/4
f 4/2/4 18/1/18 3/18/3
f 4/2/4 26/19/26 35/3/35
f 4/52/4 34/37/34 8/36/8
f 5/24/5 19/55/19 9/40/9
f 5/24/5 30/41/30 27/25/27
f 5/24/5 36/9/36 1/8/1
f 6/59/6 10/58/10 7/73/7
f 6/46/6 28/47/28 10/30/10
f 7/73/7 10/58/10 11/72/11
f 7/73/7 12/74/12 8/75/8
f 7/32/7 28/15/28 6/13/6
f 7/32/7 34/45/34 29/33/29
f 8/36/8 18/51/18 4/52/4
f 8/43/8 34/45/34 7/32/7
f 9/40/9 13/56/13 30/41/30
f 9/40/9 19/55/19 13/56/13
f 9/40/9 30/41/30 5/24/5
f 10/58/10 15/71/15 11/72/11
f 10/30/10 28/47/28 31/31/31
f 10/30/10 33/17/33 14/16/14
f 11/72/11 12/74/12 7/73/7
f 11/65/11 22/66/22 12/59/12
f 12/20/12 20/3/20 8/36/8
f 12/20/12 24/5/24 16/4/16
f 13/6/13 19/5/19 14/22/14
f 13/6/13 33/23/33 32/7/32
f 14/48/14 15/71/15 10/58/10
f 14/22/14 19/5/19 15/38/15
f 14/22/14 33/23/33 13/6/13
f 15/38/15 20/53/20 16/54/16
f 15/62/15 22/45/22 11/43/11
f 16/4/16 20/3/20 12/20/12
f 16/54/16 24/55/24 15/38/15
f 17/48/17 2/34/2 18/1/18
f 18/51/18 8/36/8 20/3/20
f 19/55/19 5/24/5 17/7/17
f 20/53/20 15/38/15 19/5/19
f 21/60/21 12/59/12 22/66/22
f 21/21/21 24/5/24 12/20/12
f 22/45/22 15/62/15 23/64/23
f 22/68/22 24/69/24 21/70/21
f 23/39/23 15/38/15 24/55/24
f 23/67/23 24/69/24 22/68/22
f 25/35/25 26/19/26 2/34/2
f 25/29/25 36/14/36 28/28/28
f 26/44/26 28/28/28 29/42/29
f 27/12/27 30/11/30 28/28/28
f 27/25/27 36/9/36 5/24/5
f 28/28/28 26/44/26 25/29/25
f 28/28/28 36/14/36 27/12/27
f 29/33/29 28/15/28 7/32/7
f 29/42/29 34/61/34 26/44/26
f 30/11/30 33/26/33 31/27/31
f 31/27/31 28/28/28 30/11/30
f 31/31/31 33/17/33 10/30/10
f 32/57/32 30/41/30 13/56/13
f 32/10/32 33/26/33 30/11/30
f 35/63/35 26/44/26 34/61/34
f 35/53/35 34/37/34 4/52/4
