# Exported from Wings 3D 1.5.2
mtllib TEST_ROADS_10x10_house.mtl
o Cube1
#8 vertices, 12 faces
v -5.00000000 0.0000000e+0 -5.00000000
v -5.00000000 0.0000000e+0 5.00000000
v -5.00000000 10.00000000 -5.00000000
v -5.00000000 10.00000000 5.00000000
v 5.00000000 0.0000000e+0 -5.00000000
v 5.00000000 0.0000000e+0 5.00000000
v 5.00000000 10.00000000 -5.00000000
v 5.00000000 10.00000000 5.00000000
vt 0.0000000e+0 8.3266727e-17
vt 0.0000000e+0 0.50000000
vt 0.0000000e+0 1.00000000
vt 8.3266727e-17 0.50000000
vt 0.50000000 0.0000000e+0
vt 0.50000000 0.50000000
vt 0.50000000 1.00000000
vt 0.50000000 0.0000000e+0
vt 0.50000000 0.50000000
vt 1.00000000 0.0000000e+0
vt 1.00000000 0.50000000
vn -0.57735027 -0.57735027 -0.57735027
vn -0.57735027 -0.57735027 0.57735027
vn -0.57735027 0.57735027 -0.57735027
vn -0.57735027 0.57735027 0.57735027
vn 0.57735027 -0.57735027 -0.57735027
vn 0.57735027 -0.57735027 0.57735027
vn 0.57735027 0.57735027 -0.57735027
vn 0.57735027 0.57735027 0.57735027
g Cube1_Cube1_auv
usemtl Cube1_auv
s 1
f 1/9/1 5/4/5 2/5/2
f 2/8/2 3/9/3 1/9/1
f 2/5/2 5/4/5 6/1/6
f 2/8/2 8/10/8 4/8/4
f 3/9/3 5/11/5 1/9/1
f 3/3/3 8/6/8 7/7/7
f 4/8/4 3/9/3 2/8/2
f 4/2/4 8/6/8 3/3/3
f 5/11/5 8/10/8 6/10/6
f 6/10/6 8/10/8 2/8/2
f 7/11/7 5/11/5 3/9/3
f 7/11/7 8/10/8 5/11/5
