# Exported from Wings 3D 1.5.3
mtllib wheel.mtl
o Cylinder2
#48 vertices, 92 faces
v -0.15000000 0.50000000 -1.6768994e-17
v -0.15000000 0.48296291 0.12940952
v -0.15000000 0.43301270 0.25000000
v -0.15000000 0.35355339 0.35355339
v -0.15000000 0.25000000 0.43301270
v -0.15000000 0.12940952 0.48296291
v -0.15000000 1.2368239e-16 0.50000000
v -0.15000000 -0.12940952 0.48296291
v -0.15000000 -0.25000000 0.43301270
v -0.15000000 -0.35355339 0.35355339
v -0.15000000 -0.43301270 0.25000000
v -0.15000000 -0.48296291 0.12940952
v -0.15000000 -0.50000000 4.4463346e-17
v -0.15000000 -0.48296291 -0.12940952
v -0.15000000 -0.43301270 -0.25000000
v -0.15000000 -0.35355339 -0.35355339
v -0.15000000 -0.25000000 -0.43301270
v -0.15000000 -0.12940952 -0.48296291
v -0.15000000 1.2177052e-18 -0.50000000
v -0.15000000 0.12940952 -0.48296291
v -0.15000000 0.25000000 -0.43301270
v -0.15000000 0.35355339 -0.35355339
v -0.15000000 0.43301270 -0.25000000
v -0.15000000 0.48296291 -0.12940952
v 0.15000000 0.50000000 -1.6768994e-17
v 0.15000000 0.48296291 0.12940952
v 0.15000000 0.43301270 0.25000000
v 0.15000000 0.35355339 0.35355339
v 0.15000000 0.25000000 0.43301270
v 0.15000000 0.12940952 0.48296291
v 0.15000000 6.2450045e-17 0.50000000
v 0.15000000 -0.12940952 0.48296291
v 0.15000000 -0.25000000 0.43301270
v 0.15000000 -0.35355339 0.35355339
v 0.15000000 -0.43301270 0.25000000
v 0.15000000 -0.48296291 0.12940952
v 0.15000000 -0.50000000 4.4463346e-17
v 0.15000000 -0.48296291 -0.12940952
v 0.15000000 -0.43301270 -0.25000000
v 0.15000000 -0.35355339 -0.35355339
v 0.15000000 -0.25000000 -0.43301270
v 0.15000000 -0.12940952 -0.48296291
v 0.15000000 -6.0014635e-17 -0.50000000
v 0.15000000 0.12940952 -0.48296291
v 0.15000000 0.25000000 -0.43301270
v 0.15000000 0.35355339 -0.35355339
v 0.15000000 0.43301270 -0.25000000
v 0.15000000 0.48296291 -0.12940952
vt 0.0000000e+0 0.25000000
vt 0.0000000e+0 0.75000000
vt 8.5185434e-3 0.31470476
vt 8.5185434e-3 0.68529524
vt 8.5185434e-3 0.81470476
vt 8.5185434e-3 0.18529524
vt 3.3493649e-2 0.37500000
vt 3.3493649e-2 0.62500000
vt 3.3493649e-2 0.87500000
vt 3.3493649e-2 0.12500000
vt 7.3223305e-2 0.42677670
vt 7.3223305e-2 0.57322330
vt 7.3223305e-2 0.92677670
vt 7.3223305e-2 7.3223305e-2
vt 0.12500000 0.46650635
vt 0.12500000 0.53349365
vt 0.12500000 3.3493649e-2
vt 0.12500000 0.96650635
vt 0.18529524 0.49148146
vt 0.18529524 0.50851854
vt 0.18529524 0.99148146
vt 0.18529524 8.5185434e-3
vt 0.25000000 0.50000000
vt 0.25000000 0.0000000e+0
vt 0.25000000 0.50000000
vt 0.25000000 1.00000000
vt 0.31470476 0.50851854
vt 0.31470476 0.49148146
vt 0.31470476 8.5185434e-3
vt 0.31470476 0.99148146
vt 0.37500000 0.53349365
vt 0.37500000 0.46650635
vt 0.37500000 3.3493649e-2
vt 0.37500000 0.96650635
vt 0.42677670 0.57322330
vt 0.42677670 7.3223305e-2
vt 0.42677670 0.42677670
vt 0.42677670 0.92677670
vt 0.46650635 0.62500000
vt 0.46650635 0.37500000
vt 0.46650635 0.12500000
vt 0.46650635 0.87500000
vt 0.49148146 0.18529524
vt 0.49148146 0.31470476
vt 0.49148146 0.68529524
vt 0.49148146 0.81470476
vt 0.50000000 0.0000000e+0
vt 0.50000000 5.1776695e-2
vt 0.50000000 0.11207193
vt 0.50000000 0.17677670
vt 0.50000000 0.24148146
vt 0.50000000 0.30177670
vt 0.50000000 0.40533009
vt 0.50000000 0.46562532
vt 0.50000000 0.53033009
vt 0.50000000 0.59503485
vt 0.50000000 0.65533009
vt 0.50000000 0.70710678
vt 0.50000000 0.25000000
vt 0.50000000 0.35355339
vt 0.50000000 0.35355339
vt 0.50000000 0.75000000
vt 0.65000000 5.5511151e-17
vt 0.65000000 5.1776695e-2
vt 0.65000000 0.11207193
vt 0.65000000 0.17677670
vt 0.65000000 0.24148146
vt 0.65000000 0.30177670
vt 0.65000000 0.35355339
vt 0.65000000 0.40533009
vt 0.65000000 0.46562532
vt 0.65000000 0.53033009
vt 0.65000000 0.59503485
vt 0.65000000 0.65533009
vt 0.65000000 0.70710678
vt 0.65000000 0.0000000e+0
vt 0.65000000 5.1776695e-2
vt 0.65000000 0.11207193
vt 0.65000000 0.17677670
vt 0.65000000 0.24148146
vt 0.65000000 0.30177670
vt 0.65000000 0.35355339
vt 0.65000000 0.35355339
vt 0.65000000 0.40533009
vt 0.65000000 0.46562532
vt 0.65000000 0.53033009
vt 0.65000000 0.59503485
vt 0.65000000 0.65533009
vt 0.65000000 0.70710678
vt 0.80000000 0.0000000e+0
vt 0.80000000 5.1776695e-2
vt 0.80000000 0.11207193
vt 0.80000000 0.17677670
vt 0.80000000 0.24148146
vt 0.80000000 0.30177670
vt 0.80000000 0.35355339
vt 0.80000000 0.40533009
vt 0.80000000 0.46562532
vt 0.80000000 0.53033009
vt 0.80000000 0.59503485
vt 0.80000000 0.65533009
vt 0.80000000 0.35355339
vt 0.80000000 0.70710678
vn -0.83423979 0.55140183 -2.7013940e-16
vn -0.60329812 0.77034107 0.20641227
vn -0.83423979 0.47752799 0.27570092
vn -0.60329812 0.56392880 0.56392880
vn -0.83423979 0.27570092 0.47752799
vn -0.60329812 0.20641227 0.77034107
vn -0.45029279 1.2498136e-16 0.89288095
vn -0.45029279 -0.23109460 0.86245677
vn -0.83423979 -0.27570092 0.47752799
vn -0.60329812 -0.56392880 0.56392880
vn -0.83423979 -0.47752799 0.27570092
vn -0.60329812 -0.77034107 0.20641227
vn -0.83423979 -0.55140183 3.3960381e-16
vn -0.60329812 -0.77034107 -0.20641227
vn -0.83423979 -0.47752799 -0.27570092
vn -0.60329812 -0.56392880 -0.56392880
vn -0.83423979 -0.27570092 -0.47752799
vn -0.60329812 -0.20641227 -0.77034107
vn -0.45029279 -4.9992543e-16 -0.89288095
vn -0.45029279 0.23109460 -0.86245677
vn -0.83423979 0.27570092 -0.47752799
vn -0.60329812 0.56392880 -0.56392880
vn -0.83423979 0.47752799 -0.27570092
vn -0.60329812 0.77034107 -0.20641227
vn 0.60329812 0.79751576 -1.1163258e-16
vn 0.83423979 0.53261327 0.14271330
vn 0.60329812 0.69066891 0.39875788
vn 0.83423979 0.38989997 0.38989997
vn 0.60329812 0.39875788 0.69066891
vn 0.71013792 0.18222481 0.68007224
vn 0.24450384 9.5008829e-17 0.96964832
vn 0.83423979 -0.14271330 0.53261327
vn 0.60329812 -0.39875788 0.69066891
vn 0.83423979 -0.38989997 0.38989997
vn 0.60329812 -0.69066891 0.39875788
vn 0.83423979 -0.53261327 0.14271330
vn 0.60329812 -0.79751576 4.9118334e-16
vn 0.83423979 -0.53261327 -0.14271330
vn 0.60329812 -0.69066891 -0.39875788
vn 0.83423979 -0.38989997 -0.38989997
vn 0.60329812 -0.39875788 -0.69066891
vn 0.71013792 -0.18222481 -0.68007224
vn 0.24450384 -4.4111242e-16 -0.96964832
vn 0.83423979 0.14271330 -0.53261327
vn 0.60329812 0.39875788 -0.69066891
vn 0.83423979 0.38989997 -0.38989997
vn 0.60329812 0.69066891 -0.39875788
vn 0.83423979 0.53261327 -0.14271330
g Cylinder2_Cylinder2_auv
usemtl Cylinder2_auv
s 1
f 1/25/1 13/24/13 2/28/2
f 1/79/1 25/93/25 24/80/24
f 2/28/2 12/29/12 3/32/3
f 2/78/2 25/93/25 1/79/1
f 2/78/2 27/91/27 26/92/26
f 3/32/3 11/33/11 4/37/4
f 3/77/3 27/91/27 2/78/2
f 4/37/4 10/36/10 5/40/5
f 4/76/4 27/91/27 3/77/3
f 4/58/4 29/74/29 28/75/28
f 5/40/5 9/41/9 6/44/6
f 5/57/5 29/74/29 4/58/4
f 6/44/6 8/43/8 7/59/7
f 6/56/6 29/74/29 5/57/5
f 6/56/6 31/72/31 30/73/30
f 7/55/7 31/72/31 6/56/6
f 8/43/8 6/44/6 9/41/9
f 8/54/8 31/72/31 7/55/7
f 8/54/8 33/70/33 32/71/32
f 9/41/9 5/40/5 10/36/10
f 9/53/9 33/70/33 8/54/8
f 10/36/10 4/37/4 11/33/11
f 10/61/10 33/70/33 9/53/9
f 10/102/10 35/84/35 34/82/34
f 11/33/11 3/32/3 12/29/12
f 11/97/11 35/84/35 10/102/10
f 12/29/12 2/28/2 13/24/13
f 12/98/12 35/84/35 11/97/11
f 12/98/12 37/86/37 36/85/36
f 13/24/13 1/25/1 14/22/14
f 13/99/13 37/86/37 12/98/12
f 14/22/14 24/19/24 15/17/15
f 14/100/14 37/86/37 13/99/13
f 14/100/14 39/88/39 38/87/38
f 15/17/15 23/15/23 16/14/16
f 15/101/15 39/88/39 14/100/14
f 16/14/16 22/11/22 17/10/17
f 16/103/16 39/88/39 15/101/15
f 16/63/16 41/48/41 40/47/40
f 17/10/17 21/7/21 18/6/18
f 17/64/17 41/48/41 16/63/16
f 18/6/18 20/3/20 19/1/19
f 18/65/18 41/48/41 17/64/17
f 18/65/18 43/50/43 42/49/42
f 19/66/19 43/50/43 18/65/18
f 20/3/20 18/6/18 21/7/21
f 20/67/20 43/50/43 19/66/19
f 20/67/20 45/52/45 44/51/44
f 21/7/21 17/10/17 22/11/22
f 21/68/21 45/52/45 20/67/20
f 22/11/22 16/14/16 23/15/23
f 22/69/22 45/52/45 21/68/21
f 22/83/22 47/95/47 46/96/46
f 23/15/23 15/17/15 24/19/24
f 23/81/23 47/95/47 22/83/22
f 24/19/24 14/22/14 1/25/1
f 24/80/24 25/93/25 48/94/48
f 24/80/24 47/95/47 23/81/23
f 25/26/25 37/23/37 48/30/48
f 26/92/26 25/93/25 2/78/2
f 26/21/26 36/20/36 25/26/25
f 27/18/27 35/16/35 26/21/26
f 28/90/28 27/91/27 4/76/4
f 28/13/28 34/12/34 27/18/27
f 29/9/29 33/8/33 28/13/28
f 30/73/30 29/74/29 6/56/6
f 30/5/30 32/4/32 29/9/29
f 31/2/31 32/4/32 30/5/30
f 32/71/32 31/72/31 8/54/8
f 33/8/33 29/9/29 32/4/32
f 34/12/34 28/13/28 33/8/33
f 34/69/34 33/70/33 10/61/10
f 35/16/35 27/18/27 34/12/34
f 36/20/36 26/21/26 35/16/35
f 36/85/36 35/84/35 12/98/12
f 37/23/37 25/26/25 36/20/36
f 38/87/38 37/86/37 14/100/14
f 38/27/38 48/30/48 37/23/37
f 39/31/39 47/34/47 38/27/38
f 40/89/40 39/88/39 16/103/16
f 40/35/40 46/38/46 39/31/39
f 41/39/41 45/42/45 40/35/40
f 42/49/42 41/48/41 18/65/18
f 42/45/42 44/46/44 41/39/41
f 43/62/43 44/46/44 42/45/42
f 44/51/44 43/50/43 20/67/20
f 45/42/45 41/39/41 44/46/44
f 46/38/46 40/35/40 45/42/45
f 46/60/46 45/52/45 22/69/22
f 47/34/47 39/31/39 46/38/46
f 48/30/48 38/27/38 47/34/47
f 48/94/48 47/95/47 24/80/24
